G04 ---------------------------- Layer name :BOTTOM LAYER*
G04 easyEDA 0.1*
G04 Scale: 100 percent, Rotated: No, Reflected: No *
G04 Dimensions in inches *
G04 leading zeros omitted , absolute positions ,2 integer and 4 * 
%FSLAX24Y24*%
%MOIN*%
G90*
G70D02*

%ADD11C,0.039370*%
%ADD12C,0.019685*%
%ADD13C,0.009842*%
%ADD14R,0.059000X0.059000*%
%ADD15C,0.059000*%
%ADD17C,0.146000*%
%ADD19R,0.060000X0.060000*%
%ADD20C,0.060000*%
%ADD22R,0.080000X0.160000*%
%ADD23R,0.160000X0.080000*%
%ADD24R,0.180000X0.080000*%
%ADD25C,0.051700*%
%ADD27C,0.106700*%
%ADD29R,0.085900X0.047700*%

%LPD*%
%LNVIA PAD TRACK COPPERAREA*%
G54D11*
G01X11519Y50301D02*
G01X11519Y50638D01*
G01X12259Y51379D01*
G01X20440Y51379D01*
G01X21519Y50301D01*
G54D12*
G01X33519Y55008D02*
G01X34122Y55008D01*
G01X34405Y54726D01*
G01X34405Y51674D01*
G01X34799Y51281D01*
G01X40803Y51281D01*
G01X41295Y50789D01*
G01X41295Y46163D01*
G01X41688Y45769D01*
G01X43740Y45769D01*
G01X43744Y45766D01*
G01X33519Y56008D02*
G01X34307Y56005D01*
G01X34799Y55513D01*
G01X34799Y51970D01*
G01X35094Y51674D01*
G01X40901Y51674D01*
G01X41688Y50887D01*
G01X41688Y47147D01*
G01X42082Y46753D01*
G01X43715Y46753D01*
G01X43744Y46782D01*
G01X33519Y57008D02*
G01X34681Y57008D01*
G01X35192Y56497D01*
G01X35192Y52363D01*
G01X35488Y52068D01*
G01X40999Y52068D01*
G01X42082Y50985D01*
G01X42082Y48230D01*
G01X42574Y47737D01*
G01X43683Y47737D01*
G01X43744Y47798D01*
G01X33519Y58008D02*
G01X35059Y58008D01*
G01X35586Y57481D01*
G01X35586Y52659D01*
G01X35783Y52462D01*
G01X41098Y52462D01*
G01X42476Y51084D01*
G01X42476Y49115D01*
G01X42771Y48820D01*
G01X43737Y48820D01*
G01X43744Y48814D01*
G01X6369Y54629D02*
G01X10190Y54629D01*
G01X10610Y54210D01*
G01X10610Y44529D01*
G01X11080Y44060D01*
G01X19350Y44060D01*
G01X20250Y43150D01*
G01X20250Y38620D01*
G01X20606Y38270D01*
G01X21489Y38270D01*
G01X21520Y38300D01*
G01X6366Y53616D02*
G01X9984Y53616D01*
G01X10251Y53348D01*
G01X10251Y44411D01*
G01X11039Y43623D01*
G01X19307Y43623D01*
G01X19937Y42993D01*
G01X19937Y37796D01*
G01X20448Y37285D01*
G01X21503Y37285D01*
G01X21519Y37301D01*
G01X6366Y52599D02*
G01X9544Y52599D01*
G01X9897Y52245D01*
G01X9897Y44214D01*
G01X10960Y43151D01*
G01X19188Y43151D01*
G01X19622Y42718D01*
G01X19622Y36773D01*
G01X20133Y36261D01*
G01X21479Y36261D01*
G01X21519Y36301D01*
G01X6369Y51579D02*
G01X9260Y51579D01*
G01X9580Y51260D01*
G01X9580Y43980D01*
G01X10800Y42760D01*
G01X18989Y42760D01*
G01X19310Y42440D01*
G01X19310Y35829D01*
G01X19820Y35320D01*
G01X21500Y35320D01*
G01X21520Y35300D01*
G01X6366Y38591D02*
G01X8079Y38591D01*
G01X8834Y37836D01*
G01X8834Y35985D01*
G01X9582Y35237D01*
G01X11455Y35237D01*
G01X11519Y35301D01*
G01X6366Y39607D02*
G01X8638Y39607D01*
G01X9149Y39096D01*
G01X9149Y36773D01*
G01X9661Y36261D01*
G01X11479Y36261D01*
G01X11519Y36301D01*
G01X6366Y40623D02*
G01X8961Y40623D01*
G01X9503Y40080D01*
G01X9503Y37757D01*
G01X9976Y37285D01*
G01X11503Y37285D01*
G01X11519Y37301D01*
G01X6366Y41639D02*
G01X9283Y41639D01*
G01X9818Y41104D01*
G01X9818Y38820D01*
G01X10369Y38269D01*
G01X11487Y38269D01*
G01X11519Y38301D01*
G54D11*
G01X30586Y61036D02*
G01X33492Y61036D01*
G01X33519Y61008D01*
G01X23495Y53762D02*
G01X24169Y53762D01*
G01X24464Y54056D01*
G01X24464Y54647D01*
G01X24779Y54962D01*
G01X30251Y54962D01*
G01X30606Y54607D01*
G01X30606Y53785D01*
G01X30582Y53761D01*
G01X14388Y58945D02*
G01X16630Y58940D01*
G01X17141Y58429D01*
G01X17141Y56500D01*
G01X17770Y55870D01*
G01X23010Y55870D01*
G01X23520Y55360D01*
G01X23520Y53790D01*
G01X23500Y53760D01*
G01X14380Y58940D02*
G01X14380Y56806D01*
G01X13755Y56182D01*
G01X12181Y56182D01*
G01X11472Y55474D01*
G01X11472Y50347D01*
G01X11519Y50301D01*
G01X14388Y58945D02*
G01X14388Y58862D01*
G01X13125Y57600D01*
G01X10202Y57600D01*
G01X8861Y58942D01*
G01X18362Y57088D02*
G01X18362Y58466D01*
G01X18874Y58978D01*
G01X23047Y58978D01*
G01X23519Y59450D01*
G01X23519Y61017D01*
G01X23500Y61037D01*
G01X11519Y50300D02*
G01X13930Y50300D01*
G01X14700Y49529D01*
G01X14700Y45316D01*
G01X15290Y44730D01*
G01X19780Y44730D01*
G01X20920Y43580D01*
G01X20920Y40430D01*
G01X21470Y39880D01*
G01X25720Y39880D01*
G01X26389Y39210D01*
G01X31430Y39210D01*
G01X31520Y39300D01*
G54D13*
G01X17519Y49301D02*
G01X18314Y49301D01*
G01X18677Y48938D01*
G01X18677Y47678D01*
G01X19070Y47285D01*
G01X31503Y47285D01*
G01X31519Y47301D01*
G01X17519Y50301D02*
G01X18456Y50301D01*
G01X18952Y49804D01*
G01X18952Y47836D01*
G01X19228Y47560D01*
G01X30778Y47560D01*
G01X31519Y48301D01*
G01X39519Y57008D02*
G01X36865Y57008D01*
G01X36354Y56497D01*
G01X36354Y54608D01*
G01X36354Y54607D01*
G01X39519Y56008D02*
G01X37676Y56008D01*
G01X37181Y55513D01*
G01X37181Y54607D01*
G01X37181Y49379D02*
G01X37181Y44844D01*
G01X37692Y44332D01*
G01X39487Y44332D01*
G01X39519Y44301D01*
G01X36354Y49379D02*
G01X36354Y43820D01*
G01X36944Y43230D01*
G01X39448Y43230D01*
G01X39519Y43301D01*
G01X31519Y46301D02*
G01X28874Y46301D01*
G01X28401Y45828D01*
G01X28401Y40552D01*
G01X28125Y40277D01*
G01X27542Y40277D01*
G01X27519Y40301D01*
G01X31519Y45301D02*
G01X29202Y45301D01*
G01X29194Y45310D01*
G54D11*
G01X8638Y49608D02*
G01X8638Y48781D01*
G01X8165Y48308D01*
G01X5866Y48308D01*
G01X5828Y48271D01*
G01X5828Y48271D02*
G01X4778Y48271D01*
G54D13*
G01X43411Y40950D02*
G01X39870Y40950D01*
G01X39519Y41301D01*
G01X43411Y38950D02*
G01X42389Y38950D01*
G01X42062Y38623D01*
G01X42062Y37009D01*
G01X41669Y36615D01*
G01X32732Y36615D01*
G01X32338Y37009D01*
G01X32338Y42481D01*
G01X31519Y43301D01*
G01X43411Y39950D02*
G01X42168Y39950D01*
G01X41747Y39529D01*
G01X41747Y37403D01*
G01X41354Y37009D01*
G01X33007Y37009D01*
G01X32692Y37324D01*
G01X32692Y43127D01*
G01X31519Y44301D01*
G54D14*
G01X31519Y38301D03*
G54D15*
G01X31519Y39301D03*
G01X31519Y40301D03*
G01X31519Y41301D03*
G01X31519Y42301D03*
G01X31519Y43301D03*
G01X31519Y44301D03*
G01X31519Y45301D03*
G01X31519Y46301D03*
G01X31519Y47301D03*
G01X31519Y48301D03*
G01X31519Y49301D03*
G01X31519Y50301D03*
G54D14*
G01X39519Y38301D03*
G54D15*
G01X39519Y39301D03*
G01X39519Y40301D03*
G01X39519Y41301D03*
G01X39519Y42301D03*
G01X39519Y43301D03*
G01X39519Y44301D03*
G01X39519Y45301D03*
G01X39519Y46301D03*
G01X39519Y47301D03*
G01X39519Y48301D03*
G01X39519Y49301D03*
G01X39519Y50301D03*
G01X11519Y50301D03*
G54D14*
G01X11519Y49301D03*
G54D15*
G01X11519Y46301D03*
G54D14*
G01X11519Y45301D03*
G54D15*
G01X11519Y38301D03*
G01X11519Y37301D03*
G01X11519Y36301D03*
G54D14*
G01X11519Y35301D03*
G01X17519Y48301D03*
G54D15*
G01X17519Y49301D03*
G01X17519Y50301D03*
G01X17519Y41301D03*
G54D14*
G01X17519Y40301D03*
G54D15*
G01X17519Y36301D03*
G54D14*
G01X17519Y35301D03*
G54D15*
G01X21519Y50301D03*
G54D14*
G01X21519Y49301D03*
G54D15*
G01X21519Y46301D03*
G54D14*
G01X21519Y45301D03*
G54D15*
G01X21519Y38301D03*
G01X21519Y37301D03*
G01X21519Y36301D03*
G54D14*
G01X21519Y35301D03*
G01X27519Y48301D03*
G54D15*
G01X27519Y49301D03*
G01X27519Y50301D03*
G01X27519Y41301D03*
G54D14*
G01X27519Y40301D03*
G54D15*
G01X26983Y36316D03*
G54D14*
G01X26983Y35316D03*
G01X39519Y54008D03*
G54D15*
G01X39519Y55008D03*
G01X39519Y56008D03*
G01X39519Y57008D03*
G01X39519Y58008D03*
G01X39519Y59008D03*
G01X39519Y60008D03*
G01X39519Y61008D03*
G54D14*
G01X33519Y54008D03*
G54D15*
G01X33519Y55008D03*
G01X33519Y56008D03*
G01X33519Y57008D03*
G01X33519Y58008D03*
G01X33519Y59008D03*
G01X33519Y60008D03*
G01X33519Y61008D03*
G54D17*
G01X47300Y49411D03*
G01X47300Y44664D03*
G54D19*
G01X44760Y45258D03*
G54D20*
G01X43744Y45766D03*
G01X44760Y46274D03*
G01X43744Y46782D03*
G01X44760Y47290D03*
G01X43744Y47798D03*
G01X44760Y48306D03*
G01X43744Y48814D03*
G54D17*
G01X2811Y50987D03*
G01X2811Y55732D03*
G54D19*
G01X5350Y55139D03*
G54D20*
G01X6366Y54630D03*
G01X5350Y54123D03*
G01X6366Y53616D03*
G01X5350Y53106D03*
G01X6366Y52599D03*
G01X5350Y52092D03*
G01X6366Y51583D03*
G54D17*
G01X2811Y37994D03*
G01X2811Y42741D03*
G54D19*
G01X5350Y42147D03*
G54D20*
G01X6366Y41639D03*
G01X5350Y41131D03*
G01X6366Y40623D03*
G01X5350Y40115D03*
G01X6366Y39607D03*
G01X5350Y39099D03*
G01X6366Y38591D03*
G54D15*
G01X25454Y53745D03*
G54D14*
G01X26454Y53745D03*
G54D15*
G01X29582Y53761D03*
G54D14*
G01X30582Y53761D03*
G54D15*
G01X29586Y61036D03*
G54D14*
G01X30586Y61036D03*
G54D15*
G01X25450Y61030D03*
G54D14*
G01X26450Y61030D03*
G54D15*
G01X18368Y53747D03*
G54D14*
G01X19368Y53747D03*
G54D15*
G01X22495Y53762D03*
G54D14*
G01X23495Y53762D03*
G54D15*
G01X22500Y61037D03*
G54D14*
G01X23500Y61037D03*
G54D15*
G01X18364Y61031D03*
G54D14*
G01X19364Y61031D03*
G54D22*
G01X6741Y60042D03*
G54D23*
G01X8861Y61342D03*
G54D24*
G01X8861Y58942D03*
G54D22*
G01X12268Y60045D03*
G54D23*
G01X14388Y61345D03*
G54D24*
G01X14388Y58945D03*
G54D25*
G01X4778Y48271D03*
G01X4778Y47281D03*
G01X4778Y46501D03*
G01X4799Y45511D03*
G54D27*
G01X3729Y44311D03*
G01X3729Y49471D03*
G01X5969Y44311D03*
G01X5969Y49471D03*
G54D25*
G01X5828Y45511D03*
G01X5828Y46501D03*
G01X5828Y47281D03*
G01X5828Y48271D03*
G54D29*
G01X46411Y40950D03*
G01X46411Y39950D03*
G01X46411Y38950D03*
G01X43411Y38950D03*
G01X43411Y39950D03*
G01X43411Y40950D03*
G54D20*
G01X18362Y57088D03*
G01X8638Y49608D03*
G01X36354Y54607D03*
G01X37181Y54607D03*
G01X36354Y49379D03*
G01X37181Y49379D03*
G54D15*
G01X29194Y45310D03*

M00*
M02*