G04 ---------------------------- Layer name :TOP SOLDER LAYER*
G04 easyEDA 0.1*
G04 Scale: 100 percent, Rotated: No, Reflected: No *
G04 Dimensions in inches *
G04 leading zeros omitted , absolute positions ,2 integer and 4 * 
%FSLAX24Y24*%
%MOIN*%
G90*
G70D02*

%ADD11R,0.062000X0.062000*%
%ADD12C,0.062000*%
%ADD14C,0.149000*%
%ADD16R,0.063000X0.063000*%
%ADD17C,0.063000*%
%ADD19R,0.083000X0.163000*%
%ADD20R,0.163000X0.083000*%
%ADD21R,0.183000X0.083000*%
%ADD22C,0.054700*%
%ADD24C,0.109700*%
%ADD26R,0.088900X0.050700*%

%LPD*%
%LNVIA PAD TRACK COPPERAREA*%
G54D11*
G01X31519Y38301D03*
G54D12*
G01X31519Y39301D03*
G01X31519Y40301D03*
G01X31519Y41301D03*
G01X31519Y42301D03*
G01X31519Y43301D03*
G01X31519Y44301D03*
G01X31519Y45301D03*
G01X31519Y46301D03*
G01X31519Y47301D03*
G01X31519Y48301D03*
G01X31519Y49301D03*
G01X31519Y50301D03*
G54D11*
G01X39519Y38301D03*
G54D12*
G01X39519Y39301D03*
G01X39519Y40301D03*
G01X39519Y41301D03*
G01X39519Y42301D03*
G01X39519Y43301D03*
G01X39519Y44301D03*
G01X39519Y45301D03*
G01X39519Y46301D03*
G01X39519Y47301D03*
G01X39519Y48301D03*
G01X39519Y49301D03*
G01X39519Y50301D03*
G01X11519Y50301D03*
G54D11*
G01X11519Y49301D03*
G54D12*
G01X11519Y46301D03*
G54D11*
G01X11519Y45301D03*
G54D12*
G01X11519Y38301D03*
G01X11519Y37301D03*
G01X11519Y36301D03*
G54D11*
G01X11519Y35301D03*
G01X17519Y48301D03*
G54D12*
G01X17519Y49301D03*
G01X17519Y50301D03*
G01X17519Y41301D03*
G54D11*
G01X17519Y40301D03*
G54D12*
G01X17519Y36301D03*
G54D11*
G01X17519Y35301D03*
G54D12*
G01X21519Y50301D03*
G54D11*
G01X21519Y49301D03*
G54D12*
G01X21519Y46301D03*
G54D11*
G01X21519Y45301D03*
G54D12*
G01X21519Y38301D03*
G01X21519Y37301D03*
G01X21519Y36301D03*
G54D11*
G01X21519Y35301D03*
G01X27519Y48301D03*
G54D12*
G01X27519Y49301D03*
G01X27519Y50301D03*
G01X27519Y41301D03*
G54D11*
G01X27519Y40301D03*
G54D12*
G01X26983Y36316D03*
G54D11*
G01X26983Y35316D03*
G01X39519Y54008D03*
G54D12*
G01X39519Y55008D03*
G01X39519Y56008D03*
G01X39519Y57008D03*
G01X39519Y58008D03*
G01X39519Y59008D03*
G01X39519Y60008D03*
G01X39519Y61008D03*
G54D11*
G01X33519Y54008D03*
G54D12*
G01X33519Y55008D03*
G01X33519Y56008D03*
G01X33519Y57008D03*
G01X33519Y58008D03*
G01X33519Y59008D03*
G01X33519Y60008D03*
G01X33519Y61008D03*
G54D14*
G01X47300Y49411D03*
G01X47300Y44664D03*
G54D16*
G01X44760Y45258D03*
G54D17*
G01X43744Y45766D03*
G01X44760Y46274D03*
G01X43744Y46782D03*
G01X44760Y47290D03*
G01X43744Y47798D03*
G01X44760Y48306D03*
G01X43744Y48814D03*
G54D14*
G01X2811Y50987D03*
G01X2811Y55732D03*
G54D16*
G01X5350Y55139D03*
G54D17*
G01X6366Y54630D03*
G01X5350Y54123D03*
G01X6366Y53616D03*
G01X5350Y53106D03*
G01X6366Y52599D03*
G01X5350Y52092D03*
G01X6366Y51583D03*
G54D14*
G01X2811Y37994D03*
G01X2811Y42741D03*
G54D16*
G01X5350Y42147D03*
G54D17*
G01X6366Y41639D03*
G01X5350Y41131D03*
G01X6366Y40623D03*
G01X5350Y40115D03*
G01X6366Y39607D03*
G01X5350Y39099D03*
G01X6366Y38591D03*
G54D12*
G01X25454Y53745D03*
G54D11*
G01X26454Y53745D03*
G54D12*
G01X29582Y53761D03*
G54D11*
G01X30582Y53761D03*
G54D12*
G01X29586Y61036D03*
G54D11*
G01X30586Y61036D03*
G54D12*
G01X25450Y61030D03*
G54D11*
G01X26450Y61030D03*
G54D12*
G01X18368Y53747D03*
G54D11*
G01X19368Y53747D03*
G54D12*
G01X22495Y53762D03*
G54D11*
G01X23495Y53762D03*
G54D12*
G01X22500Y61037D03*
G54D11*
G01X23500Y61037D03*
G54D12*
G01X18364Y61031D03*
G54D11*
G01X19364Y61031D03*
G54D19*
G01X6741Y60042D03*
G54D20*
G01X8861Y61342D03*
G54D21*
G01X8861Y58942D03*
G54D19*
G01X12268Y60045D03*
G54D20*
G01X14388Y61345D03*
G54D21*
G01X14388Y58945D03*
G54D22*
G01X4778Y48271D03*
G01X4778Y47281D03*
G01X4778Y46501D03*
G01X4799Y45511D03*
G54D24*
G01X3729Y44311D03*
G01X3729Y49471D03*
G01X5969Y44311D03*
G01X5969Y49471D03*
G54D22*
G01X5828Y45511D03*
G01X5828Y46501D03*
G01X5828Y47281D03*
G01X5828Y48271D03*
G54D26*
G01X46411Y40950D03*
G01X46411Y39950D03*
G01X46411Y38950D03*
G01X43411Y38950D03*
G01X43411Y39950D03*
G01X43411Y40950D03*
G54D17*
G01X18362Y57088D03*
G01X8638Y49608D03*
G01X36354Y54607D03*
G01X37181Y54607D03*
G01X36354Y49379D03*
G01X37181Y49379D03*
G54D12*
G01X29194Y45310D03*

M00*
M02*