G04 ---------------------------- Layer name :BOTTOM SILK LAYER*
G04 easyEDA 0.1*
G04 Scale: 100 percent, Rotated: No, Reflected: No *
G04 Dimensions in inches *
G04 leading zeros omitted , absolute positions ,2 integer and 4 * 
%FSLAX24Y24*%
%MOIN*%
G90*
G70D02*

%ADD10C,0.010000*%

%LPD*%
%LNVIA PAD TRACK COPPERAREA*%
G54D10*
G01X46411Y38650D02*
G01X46411Y37950D01*
G01X43411Y37950D01*
G01X43411Y38650D01*
G01X43411Y41250D02*
G01X43411Y41950D01*
G01X46411Y41950D01*
G01X46411Y41250D01*
G01X45411Y41200D02*
G01X45411Y40700D01*
G01X45281Y40700D01*
G01X45281Y41200D01*
G01X45411Y41200D01*
G01X44411Y40700D02*
G01X44411Y41200D01*
G01X45161Y41200D01*
G01X45161Y40700D01*
G01X44411Y40700D01*
G01X45411Y40200D02*
G01X45411Y39700D01*
G01X45281Y39700D01*
G01X45281Y40200D01*
G01X45411Y40200D01*
G01X44411Y39700D02*
G01X44411Y40200D01*
G01X45161Y40200D01*
G01X45161Y39700D01*
G01X44411Y39700D01*
G01X45411Y39200D02*
G01X45411Y38700D01*
G01X45281Y38700D01*
G01X45281Y39200D01*
G01X45411Y39200D01*
G01X44411Y38700D02*
G01X44411Y39200D01*
G01X45161Y39200D01*
G01X45161Y38700D01*
G01X44411Y38700D01*
G01X45281Y40700D02*
G01X45161Y40700D01*
G01X45161Y41200D02*
G01X45281Y41200D01*
G01X45281Y39700D02*
G01X45161Y39700D01*
G01X45161Y40200D02*
G01X45281Y40200D01*
G01X45281Y38700D02*
G01X45161Y38700D01*
G01X45161Y39200D02*
G01X45281Y39200D01*
G01X46411Y40650D02*
G01X46411Y40250D01*
G01X46411Y39650D02*
G01X46411Y39250D01*
G01X43411Y39250D02*
G01X43411Y39650D01*
G01X43411Y40250D02*
G01X43411Y40650D01*
G75*
G01X46111Y41550D02*
G03X46111Y41550I-100J0D01*
G01*

M00*
M02*