G04 ---------------------------- Layer name :TOP SILK LAYER*
G04 easyEDA 0.1*
G04 Scale: 100 percent, Rotated: No, Reflected: No *
G04 Dimensions in inches *
G04 leading zeros omitted , absolute positions ,2 integer and 4 * 
%FSLAX24Y24*%
%MOIN*%
G90*
G70D02*

%ADD10C,0.010000*%
%ADD11C,0.007900*%
%ADD12C,0.005080*%
%ADD13C,0.015240*%
%ADD14C,0.008000*%
%ADD15C,0.007000*%

%LPD*%
%LNVIA PAD TRACK COPPERAREA*%
G54D11*
G01X32019Y50800D02*
G01X31019Y50800D01*
G01X32019Y37800D02*
G01X32019Y50800D01*
G01X32019Y37800D02*
G01X31019Y37800D01*
G01X31019Y37800D02*
G01X31019Y38550D01*
G01X31019Y38550D02*
G01X31019Y50800D01*
G01X40019Y50800D02*
G01X39019Y50800D01*
G01X40019Y37800D02*
G01X40019Y50800D01*
G01X40019Y37800D02*
G01X39019Y37800D01*
G01X39019Y37800D02*
G01X39019Y38550D01*
G01X39019Y38550D02*
G01X39019Y50800D01*
G01X11019Y48800D02*
G01X11019Y50800D01*
G01X12019Y48800D02*
G01X11019Y48800D01*
G01X12019Y48800D02*
G01X12019Y50800D01*
G01X12019Y50800D02*
G01X11019Y50800D01*
G01X11019Y44800D02*
G01X11019Y46800D01*
G01X12019Y44800D02*
G01X11019Y44800D01*
G01X12019Y44800D02*
G01X12019Y46800D01*
G01X12019Y46800D02*
G01X11019Y46800D01*
G01X12019Y34800D02*
G01X11019Y34800D01*
G01X11019Y34800D02*
G01X11019Y38800D01*
G01X12019Y34800D02*
G01X12019Y38800D01*
G01X12019Y38800D02*
G01X11019Y38800D01*
G01X18019Y47800D02*
G01X18019Y50800D01*
G01X18019Y50800D02*
G01X17019Y50800D01*
G01X17019Y47800D02*
G01X17019Y50800D01*
G01X18019Y47800D02*
G01X17019Y47800D01*
G01X17019Y39800D02*
G01X17019Y41800D01*
G01X18019Y39800D02*
G01X17019Y39800D01*
G01X18019Y39800D02*
G01X18019Y41800D01*
G01X18019Y41800D02*
G01X17019Y41800D01*
G01X17019Y34800D02*
G01X17019Y36800D01*
G01X18019Y34800D02*
G01X17019Y34800D01*
G01X18019Y34800D02*
G01X18019Y36800D01*
G01X18019Y36800D02*
G01X17019Y36800D01*
G01X21019Y48800D02*
G01X21019Y50800D01*
G01X22019Y48800D02*
G01X21019Y48800D01*
G01X22019Y48800D02*
G01X22019Y50800D01*
G01X22019Y50800D02*
G01X21019Y50800D01*
G01X21019Y44800D02*
G01X21019Y46800D01*
G01X22019Y44800D02*
G01X21019Y44800D01*
G01X22019Y44800D02*
G01X22019Y46800D01*
G01X22019Y46800D02*
G01X21019Y46800D01*
G01X22019Y34800D02*
G01X21019Y34800D01*
G01X21019Y34800D02*
G01X21019Y38800D01*
G01X22019Y34800D02*
G01X22019Y38800D01*
G01X22019Y38800D02*
G01X21019Y38800D01*
G01X28019Y47800D02*
G01X28019Y50800D01*
G01X28019Y50800D02*
G01X27019Y50800D01*
G01X27019Y47800D02*
G01X27019Y50800D01*
G01X28019Y47800D02*
G01X27019Y47800D01*
G01X27019Y39800D02*
G01X27019Y41800D01*
G01X28019Y39800D02*
G01X27019Y39800D01*
G01X28019Y39800D02*
G01X28019Y41800D01*
G01X28019Y41800D02*
G01X27019Y41800D01*
G01X26484Y34816D02*
G01X26484Y36816D01*
G01X27484Y34816D02*
G01X26484Y34816D01*
G01X27484Y34816D02*
G01X27484Y36816D01*
G01X27484Y36816D02*
G01X26484Y36816D01*
G01X40019Y61505D02*
G01X39019Y61505D01*
G01X40019Y53503D02*
G01X40019Y61505D01*
G01X40019Y53503D02*
G01X39019Y53503D01*
G01X39019Y53503D02*
G01X39019Y61505D01*
G01X34019Y61505D02*
G01X33019Y61505D01*
G01X34019Y53503D02*
G01X34019Y61505D01*
G01X34019Y53503D02*
G01X33019Y53503D01*
G01X33019Y53503D02*
G01X33019Y61505D01*
G54D12*
G01X50449Y43988D02*
G01X50449Y50084D01*
G01X50449Y50084D02*
G01X43235Y50084D01*
G01X43235Y50084D02*
G01X43235Y43988D01*
G01X43235Y43988D02*
G01X50449Y43988D01*
G01X-339Y56409D02*
G01X-339Y50313D01*
G01X-339Y50313D02*
G01X6875Y50313D01*
G01X6875Y50313D02*
G01X6875Y56409D01*
G01X6875Y56409D02*
G01X-339Y56409D01*
G01X-339Y43416D02*
G01X-339Y37320D01*
G01X-339Y37320D02*
G01X6875Y37320D01*
G01X6875Y37320D02*
G01X6875Y43416D01*
G01X6875Y43416D02*
G01X-339Y43416D01*
G54D11*
G01X26953Y53245D02*
G01X24953Y53245D01*
G01X26953Y54245D02*
G01X26953Y53245D01*
G01X26953Y54245D02*
G01X24953Y54245D01*
G01X24953Y54245D02*
G01X24953Y53245D01*
G01X31082Y53260D02*
G01X29082Y53260D01*
G01X31082Y54260D02*
G01X31082Y53260D01*
G01X31082Y54260D02*
G01X29082Y54260D01*
G01X29082Y54260D02*
G01X29082Y53260D01*
G01X31086Y60536D02*
G01X29086Y60536D01*
G01X31086Y61536D02*
G01X31086Y60536D01*
G01X31086Y61536D02*
G01X29086Y61536D01*
G01X29086Y61536D02*
G01X29086Y60536D01*
G01X26949Y60530D02*
G01X24949Y60530D01*
G01X26949Y61530D02*
G01X26949Y60530D01*
G01X26949Y61530D02*
G01X24949Y61530D01*
G01X24949Y61530D02*
G01X24949Y60530D01*
G01X19867Y53246D02*
G01X17867Y53246D01*
G01X19867Y54246D02*
G01X19867Y53246D01*
G01X19867Y54246D02*
G01X17867Y54246D01*
G01X17867Y54246D02*
G01X17867Y53246D01*
G01X23996Y53261D02*
G01X21996Y53261D01*
G01X23996Y54261D02*
G01X23996Y53261D01*
G01X23996Y54261D02*
G01X21996Y54261D01*
G01X21996Y54261D02*
G01X21996Y53261D01*
G01X24000Y60537D02*
G01X22000Y60537D01*
G01X24000Y61537D02*
G01X24000Y60537D01*
G01X24000Y61537D02*
G01X22000Y61537D01*
G01X22000Y61537D02*
G01X22000Y60537D01*
G01X19863Y60531D02*
G01X17863Y60531D01*
G01X19863Y61531D02*
G01X19863Y60531D01*
G01X19863Y61531D02*
G01X17863Y61531D01*
G01X17863Y61531D02*
G01X17863Y60531D01*
G54D13*
G01X10661Y62562D02*
G01X7061Y62562D01*
G01X10661Y64362D02*
G01X7061Y64362D01*
G01X7061Y64362D02*
G01X7061Y58522D01*
G01X7061Y58522D02*
G01X10661Y58522D01*
G01X10661Y58522D02*
G01X10661Y64362D01*
G01X16188Y62564D02*
G01X12588Y62564D01*
G01X16188Y64364D02*
G01X12588Y64364D01*
G01X12588Y64364D02*
G01X12588Y58524D01*
G01X12588Y58524D02*
G01X16188Y58524D01*
G01X16188Y58524D02*
G01X16188Y64364D01*
G54D10*
G01X-320Y49470D02*
G01X6369Y49470D01*
G01X6369Y44310D01*
G01X-320Y44310D01*
G01X-320Y49470D01*
G01X2429Y49040D02*
G01X69Y48640D01*
G01X69Y47460D01*
G01X2429Y47070D01*
G01X2429Y44700D02*
G01X69Y45100D01*
G01X69Y46280D01*
G01X2429Y46670D01*
G54D14*
G01X35108Y39648D02*
G01X36048Y39648D01*
G01X35108Y39648D02*
G01X36048Y40006D01*
G01X35108Y40364D02*
G01X36048Y40006D01*
G01X35108Y40364D02*
G01X36048Y40364D01*
G01X35421Y40883D02*
G01X35466Y40793D01*
G01X35556Y40704D01*
G01X35690Y40659D01*
G01X35779Y40659D01*
G01X35913Y40704D01*
G01X36003Y40793D01*
G01X36048Y40883D01*
G01X36048Y41017D01*
G01X36003Y41106D01*
G01X35913Y41196D01*
G01X35779Y41241D01*
G01X35690Y41241D01*
G01X35556Y41196D01*
G01X35466Y41106D01*
G01X35421Y41017D01*
G01X35421Y40883D01*
G01X35108Y41670D02*
G01X35869Y41670D01*
G01X36003Y41715D01*
G01X36048Y41804D01*
G01X36048Y41894D01*
G01X35421Y41536D02*
G01X35421Y41849D01*
G01X35690Y42189D02*
G01X35690Y42726D01*
G01X35600Y42726D01*
G01X35511Y42681D01*
G01X35466Y42637D01*
G01X35421Y42547D01*
G01X35421Y42413D01*
G01X35466Y42323D01*
G01X35556Y42234D01*
G01X35690Y42189D01*
G01X35779Y42189D01*
G01X35913Y42234D01*
G01X36003Y42323D01*
G01X36048Y42413D01*
G01X36048Y42547D01*
G01X36003Y42637D01*
G01X35913Y42726D01*
G01X35108Y43021D02*
G01X35153Y43066D01*
G01X35108Y43111D01*
G01X35063Y43066D01*
G01X35108Y43021D01*
G01X35421Y43066D02*
G01X36048Y43066D01*
G01X35421Y43406D02*
G01X36048Y43406D01*
G01X35600Y43406D02*
G01X35466Y43540D01*
G01X35421Y43630D01*
G01X35421Y43764D01*
G01X35466Y43853D01*
G01X35600Y43898D01*
G01X36048Y43898D01*
G01X35421Y44417D02*
G01X35466Y44328D01*
G01X35556Y44238D01*
G01X35690Y44193D01*
G01X35779Y44193D01*
G01X35913Y44238D01*
G01X36003Y44328D01*
G01X36048Y44417D01*
G01X36048Y44551D01*
G01X36003Y44641D01*
G01X35913Y44730D01*
G01X35779Y44775D01*
G01X35690Y44775D01*
G01X35556Y44730D01*
G01X35466Y44641D01*
G01X35421Y44551D01*
G01X35421Y44417D01*
G01X35108Y45759D02*
G01X35779Y45759D01*
G01X35913Y45804D01*
G01X36003Y45894D01*
G01X36048Y46028D01*
G01X36048Y46117D01*
G01X36003Y46251D01*
G01X35913Y46341D01*
G01X35779Y46386D01*
G01X35108Y46386D01*
G01X35242Y47307D02*
G01X35153Y47218D01*
G01X35108Y47084D01*
G01X35108Y46905D01*
G01X35153Y46770D01*
G01X35242Y46681D01*
G01X35332Y46681D01*
G01X35421Y46726D01*
G01X35466Y46770D01*
G01X35511Y46860D01*
G01X35600Y47128D01*
G01X35645Y47218D01*
G01X35690Y47263D01*
G01X35779Y47307D01*
G01X35913Y47307D01*
G01X36003Y47218D01*
G01X36048Y47084D01*
G01X36048Y46905D01*
G01X36003Y46770D01*
G01X35913Y46681D01*
G01X35108Y47603D02*
G01X36048Y47603D01*
G01X35108Y47603D02*
G01X35108Y48005D01*
G01X35153Y48139D01*
G01X35198Y48184D01*
G01X35287Y48229D01*
G01X35377Y48229D01*
G01X35466Y48184D01*
G01X35511Y48139D01*
G01X35556Y48005D01*
G01X35556Y47603D02*
G01X35556Y48005D01*
G01X35600Y48139D01*
G01X35645Y48184D01*
G01X35734Y48229D01*
G01X35869Y48229D01*
G01X35958Y48184D01*
G01X36003Y48139D01*
G01X36048Y48005D01*
G01X36048Y47603D01*
G01X14478Y39528D02*
G01X15418Y39528D01*
G01X14478Y39528D02*
G01X14478Y40110D01*
G01X14926Y39528D02*
G01X14926Y39886D01*
G01X15418Y39528D02*
G01X15418Y40110D01*
G01X14791Y40942D02*
G01X15418Y40942D01*
G01X14926Y40942D02*
G01X14836Y40852D01*
G01X14791Y40763D01*
G01X14791Y40629D01*
G01X14836Y40539D01*
G01X14926Y40450D01*
G01X15060Y40405D01*
G01X15149Y40405D01*
G01X15283Y40450D01*
G01X15372Y40539D01*
G01X15418Y40629D01*
G01X15418Y40763D01*
G01X15372Y40852D01*
G01X15283Y40942D01*
G01X14926Y41729D02*
G01X14836Y41684D01*
G01X14791Y41550D01*
G01X14791Y41416D01*
G01X14836Y41282D01*
G01X14926Y41237D01*
G01X15015Y41282D01*
G01X15060Y41371D01*
G01X15104Y41595D01*
G01X15149Y41684D01*
G01X15238Y41729D01*
G01X15283Y41729D01*
G01X15372Y41684D01*
G01X15418Y41550D01*
G01X15418Y41416D01*
G01X15372Y41282D01*
G01X15283Y41237D01*
G01X14791Y42069D02*
G01X15418Y42338D01*
G01X14791Y42606D02*
G01X15418Y42338D01*
G01X15597Y42248D01*
G01X15686Y42159D01*
G01X15731Y42069D01*
G01X15731Y42024D01*
G01X14478Y42901D02*
G01X15418Y42901D01*
G01X14478Y42901D02*
G01X14478Y43214D01*
G01X14522Y43349D01*
G01X14612Y43438D01*
G01X14702Y43483D01*
G01X14836Y43528D01*
G01X15060Y43528D01*
G01X15194Y43483D01*
G01X15283Y43438D01*
G01X15372Y43349D01*
G01X15418Y43214D01*
G01X15418Y42901D01*
G01X14791Y43823D02*
G01X15418Y43823D01*
G01X15060Y43823D02*
G01X14926Y43868D01*
G01X14836Y43957D01*
G01X14791Y44047D01*
G01X14791Y44181D01*
G01X14478Y44476D02*
G01X14522Y44521D01*
G01X14478Y44566D01*
G01X14433Y44521D01*
G01X14478Y44476D01*
G01X14791Y44521D02*
G01X15418Y44521D01*
G01X14791Y44861D02*
G01X15418Y45129D01*
G01X14791Y45398D02*
G01X15418Y45129D01*
G01X15060Y45693D02*
G01X15060Y46230D01*
G01X14969Y46230D01*
G01X14881Y46185D01*
G01X14836Y46140D01*
G01X14791Y46051D01*
G01X14791Y45917D01*
G01X14836Y45827D01*
G01X14926Y45738D01*
G01X15060Y45693D01*
G01X15149Y45693D01*
G01X15283Y45738D01*
G01X15372Y45827D01*
G01X15418Y45917D01*
G01X15418Y46051D01*
G01X15372Y46140D01*
G01X15283Y46230D01*
G01X14791Y46525D02*
G01X15418Y46525D01*
G01X15060Y46525D02*
G01X14926Y46570D01*
G01X14836Y46659D01*
G01X14791Y46749D01*
G01X14791Y46883D01*
G01X24242Y39528D02*
G01X25182Y39528D01*
G01X24242Y39528D02*
G01X24242Y40110D01*
G01X24689Y39528D02*
G01X24689Y39886D01*
G01X25182Y39528D02*
G01X25182Y40110D01*
G01X24555Y40942D02*
G01X25182Y40942D01*
G01X24689Y40942D02*
G01X24600Y40852D01*
G01X24555Y40763D01*
G01X24555Y40629D01*
G01X24600Y40539D01*
G01X24689Y40450D01*
G01X24824Y40405D01*
G01X24913Y40405D01*
G01X25047Y40450D01*
G01X25137Y40539D01*
G01X25182Y40629D01*
G01X25182Y40763D01*
G01X25137Y40852D01*
G01X25047Y40942D01*
G01X24689Y41729D02*
G01X24600Y41684D01*
G01X24555Y41550D01*
G01X24555Y41416D01*
G01X24600Y41282D01*
G01X24689Y41237D01*
G01X24779Y41282D01*
G01X24824Y41371D01*
G01X24868Y41595D01*
G01X24913Y41684D01*
G01X25002Y41729D01*
G01X25047Y41729D01*
G01X25137Y41684D01*
G01X25182Y41550D01*
G01X25182Y41416D01*
G01X25137Y41282D01*
G01X25047Y41237D01*
G01X24555Y42069D02*
G01X25182Y42338D01*
G01X24555Y42606D02*
G01X25182Y42338D01*
G01X25361Y42248D01*
G01X25450Y42159D01*
G01X25495Y42069D01*
G01X25495Y42024D01*
G01X24242Y42901D02*
G01X25182Y42901D01*
G01X24242Y42901D02*
G01X24242Y43214D01*
G01X24287Y43349D01*
G01X24376Y43438D01*
G01X24466Y43483D01*
G01X24600Y43528D01*
G01X24824Y43528D01*
G01X24958Y43483D01*
G01X25047Y43438D01*
G01X25137Y43349D01*
G01X25182Y43214D01*
G01X25182Y42901D01*
G01X24555Y43823D02*
G01X25182Y43823D01*
G01X24824Y43823D02*
G01X24689Y43868D01*
G01X24600Y43957D01*
G01X24555Y44047D01*
G01X24555Y44181D01*
G01X24242Y44476D02*
G01X24287Y44521D01*
G01X24242Y44566D01*
G01X24197Y44521D01*
G01X24242Y44476D01*
G01X24555Y44521D02*
G01X25182Y44521D01*
G01X24555Y44861D02*
G01X25182Y45129D01*
G01X24555Y45398D02*
G01X25182Y45129D01*
G01X24824Y45693D02*
G01X24824Y46230D01*
G01X24733Y46230D01*
G01X24645Y46185D01*
G01X24600Y46140D01*
G01X24555Y46051D01*
G01X24555Y45917D01*
G01X24600Y45827D01*
G01X24689Y45738D01*
G01X24824Y45693D01*
G01X24913Y45693D01*
G01X25047Y45738D01*
G01X25137Y45827D01*
G01X25182Y45917D01*
G01X25182Y46051D01*
G01X25137Y46140D01*
G01X25047Y46230D01*
G01X24555Y46525D02*
G01X25182Y46525D01*
G01X24824Y46525D02*
G01X24689Y46570D01*
G01X24600Y46659D01*
G01X24555Y46749D01*
G01X24555Y46883D01*
G01X36201Y56001D02*
G01X36952Y56001D01*
G01X36201Y55750D02*
G01X36201Y56251D01*
G01X36201Y56487D02*
G01X36952Y56487D01*
G01X36201Y56487D02*
G01X36201Y56808D01*
G01X36236Y56917D01*
G01X36272Y56953D01*
G01X36344Y56988D01*
G01X36415Y56988D01*
G01X36487Y56953D01*
G01X36523Y56917D01*
G01X36558Y56808D01*
G01X36558Y56487D02*
G01X36558Y56808D01*
G01X36594Y56917D01*
G01X36630Y56953D01*
G01X36702Y56988D01*
G01X36809Y56988D01*
G01X36881Y56953D01*
G01X36916Y56917D01*
G01X36952Y56808D01*
G01X36952Y56487D01*
G01X36308Y57654D02*
G01X36236Y57618D01*
G01X36201Y57511D01*
G01X36201Y57439D01*
G01X36236Y57331D01*
G01X36344Y57260D01*
G01X36523Y57225D01*
G01X36702Y57225D01*
G01X36845Y57260D01*
G01X36916Y57331D01*
G01X36952Y57439D01*
G01X36952Y57475D01*
G01X36916Y57581D01*
G01X36845Y57654D01*
G01X36737Y57690D01*
G01X36702Y57690D01*
G01X36594Y57654D01*
G01X36523Y57581D01*
G01X36487Y57475D01*
G01X36487Y57439D01*
G01X36523Y57331D01*
G01X36594Y57260D01*
G01X36702Y57225D01*
G01X36308Y58355D02*
G01X36236Y58320D01*
G01X36201Y58212D01*
G01X36201Y58141D01*
G01X36236Y58032D01*
G01X36344Y57962D01*
G01X36523Y57926D01*
G01X36702Y57926D01*
G01X36845Y57962D01*
G01X36916Y58032D01*
G01X36952Y58141D01*
G01X36952Y58177D01*
G01X36916Y58283D01*
G01X36845Y58355D01*
G01X36737Y58391D01*
G01X36702Y58391D01*
G01X36594Y58355D01*
G01X36523Y58283D01*
G01X36487Y58177D01*
G01X36487Y58141D01*
G01X36523Y58032D01*
G01X36594Y57962D01*
G01X36702Y57926D01*
G01X36344Y58628D02*
G01X36308Y58699D01*
G01X36201Y58806D01*
G01X36952Y58806D01*
G01X36379Y59079D02*
G01X36344Y59079D01*
G01X36272Y59114D01*
G01X36236Y59150D01*
G01X36201Y59222D01*
G01X36201Y59365D01*
G01X36236Y59436D01*
G01X36272Y59472D01*
G01X36344Y59507D01*
G01X36415Y59507D01*
G01X36487Y59472D01*
G01X36594Y59401D01*
G01X36952Y59043D01*
G01X36952Y59544D01*
G01X41885Y51844D02*
G01X41885Y51375D01*
G01X41885Y51844D02*
G01X42086Y51844D01*
G01X42153Y51822D01*
G01X42176Y51800D01*
G01X42198Y51754D01*
G01X42198Y51688D01*
G01X42176Y51643D01*
G01X42153Y51621D01*
G01X42086Y51598D01*
G01X41885Y51598D01*
G01X42502Y51844D02*
G01X42502Y51375D01*
G01X42346Y51844D02*
G01X42659Y51844D01*
G01X43120Y51844D02*
G01X42807Y51375D01*
G01X42807Y51844D02*
G01X43120Y51844D01*
G01X42807Y51375D02*
G01X43120Y51375D01*
G01X43612Y51844D02*
G01X43612Y51375D01*
G01X43612Y51844D02*
G01X43813Y51844D01*
G01X43879Y51822D01*
G01X43903Y51800D01*
G01X43925Y51754D01*
G01X43925Y51710D01*
G01X43903Y51665D01*
G01X43879Y51643D01*
G01X43813Y51621D01*
G01X43612Y51621D01*
G01X43767Y51621D02*
G01X43925Y51375D01*
G01X44073Y51554D02*
G01X44341Y51554D01*
G01X44341Y51598D01*
G01X44319Y51643D01*
G01X44296Y51665D01*
G01X44252Y51688D01*
G01X44185Y51688D01*
G01X44140Y51665D01*
G01X44095Y51621D01*
G01X44073Y51554D01*
G01X44073Y51508D01*
G01X44095Y51442D01*
G01X44140Y51397D01*
G01X44185Y51375D01*
G01X44252Y51375D01*
G01X44296Y51397D01*
G01X44341Y51442D01*
G01X44757Y51621D02*
G01X44712Y51665D01*
G01X44667Y51688D01*
G01X44601Y51688D01*
G01X44555Y51665D01*
G01X44511Y51621D01*
G01X44489Y51554D01*
G01X44489Y51508D01*
G01X44511Y51442D01*
G01X44555Y51397D01*
G01X44601Y51375D01*
G01X44667Y51375D01*
G01X44712Y51397D01*
G01X44757Y51442D01*
G01X44904Y51554D02*
G01X45173Y51554D01*
G01X45173Y51598D01*
G01X45151Y51643D01*
G01X45129Y51665D01*
G01X45084Y51688D01*
G01X45016Y51688D01*
G01X44972Y51665D01*
G01X44927Y51621D01*
G01X44904Y51554D01*
G01X44904Y51508D01*
G01X44927Y51442D01*
G01X44972Y51397D01*
G01X45016Y51375D01*
G01X45084Y51375D01*
G01X45129Y51397D01*
G01X45173Y51442D01*
G01X45321Y51844D02*
G01X45342Y51822D01*
G01X45366Y51844D01*
G01X45342Y51867D01*
G01X45321Y51844D01*
G01X45342Y51688D02*
G01X45342Y51375D01*
G01X45513Y51688D02*
G01X45648Y51375D01*
G01X45782Y51688D02*
G01X45648Y51375D01*
G01X45929Y51554D02*
G01X46198Y51554D01*
G01X46198Y51598D01*
G01X46175Y51643D01*
G01X46153Y51665D01*
G01X46108Y51688D01*
G01X46041Y51688D01*
G01X45996Y51665D01*
G01X45952Y51621D01*
G01X45929Y51554D01*
G01X45929Y51508D01*
G01X45952Y51442D01*
G01X45996Y51397D01*
G01X46041Y51375D01*
G01X46108Y51375D01*
G01X46153Y51397D01*
G01X46198Y51442D01*
G01X46345Y51688D02*
G01X46345Y51375D01*
G01X46345Y51554D02*
G01X46367Y51621D01*
G01X46413Y51665D01*
G01X46457Y51688D01*
G01X46524Y51688D01*
G01X47016Y51688D02*
G01X47151Y51375D01*
G01X47285Y51688D02*
G01X47151Y51375D01*
G01X47566Y51844D02*
G01X47500Y51822D01*
G01X47454Y51754D01*
G01X47433Y51643D01*
G01X47433Y51576D01*
G01X47454Y51464D01*
G01X47500Y51397D01*
G01X47566Y51375D01*
G01X47612Y51375D01*
G01X47679Y51397D01*
G01X47723Y51464D01*
G01X47746Y51576D01*
G01X47746Y51643D01*
G01X47723Y51754D01*
G01X47679Y51822D01*
G01X47612Y51844D01*
G01X47566Y51844D01*
G01X47916Y51487D02*
G01X47892Y51464D01*
G01X47916Y51442D01*
G01X47938Y51464D01*
G01X47916Y51487D01*
G01X48399Y51844D02*
G01X48175Y51375D01*
G01X48086Y51844D02*
G01X48399Y51844D01*
G01X44722Y38485D02*
G01X45098Y38485D01*
G01X44722Y38485D02*
G01X45098Y38736D01*
G01X44722Y38736D02*
G01X45098Y38736D01*
G01X44722Y38961D02*
G01X44740Y38925D01*
G01X44776Y38889D01*
G01X44812Y38872D01*
G01X44865Y38854D01*
G01X44954Y38854D01*
G01X45009Y38872D01*
G01X45044Y38889D01*
G01X45079Y38925D01*
G01X45098Y38961D01*
G01X45098Y39033D01*
G01X45079Y39068D01*
G01X45044Y39104D01*
G01X45009Y39122D01*
G01X44954Y39140D01*
G01X44865Y39140D01*
G01X44812Y39122D01*
G01X44776Y39104D01*
G01X44740Y39068D01*
G01X44722Y39033D01*
G01X44722Y38961D01*
G01X44722Y39258D02*
G01X45098Y39258D01*
G01X44722Y39258D02*
G01X44722Y39383D01*
G01X44740Y39437D01*
G01X44776Y39473D01*
G01X44812Y39491D01*
G01X44865Y39509D01*
G01X44954Y39509D01*
G01X45009Y39491D01*
G01X45044Y39473D01*
G01X45079Y39437D01*
G01X45098Y39383D01*
G01X45098Y39258D01*
G01X44722Y39627D02*
G01X45098Y39627D01*
G01X44722Y39627D02*
G01X44722Y39859D01*
G01X44901Y39627D02*
G01X44901Y39770D01*
G01X45098Y39627D02*
G01X45098Y39859D01*
G01X44722Y40253D02*
G01X45098Y40253D01*
G01X44722Y40253D02*
G01X44722Y40378D01*
G01X44740Y40432D01*
G01X44776Y40468D01*
G01X44812Y40486D01*
G01X44865Y40504D01*
G01X44954Y40504D01*
G01X45009Y40486D01*
G01X45044Y40468D01*
G01X45079Y40432D01*
G01X45098Y40378D01*
G01X45098Y40253D01*
G01X44722Y40622D02*
G01X45098Y40622D01*
G01X44722Y40740D02*
G01X45098Y40740D01*
G01X44722Y40740D02*
G01X44722Y40901D01*
G01X44740Y40955D01*
G01X44758Y40972D01*
G01X44794Y40990D01*
G01X44848Y40990D01*
G01X44883Y40972D01*
G01X44901Y40955D01*
G01X44919Y40901D01*
G01X44919Y40740D01*
G01X44722Y41144D02*
G01X44722Y41341D01*
G01X44865Y41234D01*
G01X44865Y41287D01*
G01X44883Y41323D01*
G01X44901Y41341D01*
G01X44954Y41359D01*
G01X44991Y41359D01*
G01X45044Y41341D01*
G01X45079Y41305D01*
G01X45098Y41252D01*
G01X45098Y41198D01*
G01X45079Y41144D01*
G01X45062Y41126D01*
G01X45026Y41108D01*
G01X27725Y55037D02*
G01X27652Y55002D01*
G01X27618Y54894D01*
G01X27618Y54823D01*
G01X27652Y54715D01*
G01X27761Y54644D01*
G01X27939Y54607D01*
G01X28119Y54607D01*
G01X28262Y54644D01*
G01X28333Y54715D01*
G01X28369Y54823D01*
G01X28369Y54858D01*
G01X28333Y54966D01*
G01X28262Y55037D01*
G01X28154Y55073D01*
G01X28119Y55073D01*
G01X28011Y55037D01*
G01X27939Y54966D01*
G01X27904Y54858D01*
G01X27904Y54823D01*
G01X27939Y54715D01*
G01X28011Y54644D01*
G01X28119Y54607D01*
G01X27618Y55310D02*
G01X28369Y55596D01*
G01X27618Y55881D02*
G01X28369Y55596D01*
G01X27618Y56670D02*
G01X28369Y56670D01*
G01X27618Y56670D02*
G01X27618Y56920D01*
G01X27652Y57027D01*
G01X27725Y57099D01*
G01X27795Y57135D01*
G01X27904Y57171D01*
G01X28083Y57171D01*
G01X28189Y57135D01*
G01X28262Y57099D01*
G01X28333Y57027D01*
G01X28369Y56920D01*
G01X28369Y56670D01*
G01X27795Y57944D02*
G01X27725Y57907D01*
G01X27652Y57836D01*
G01X27618Y57765D01*
G01X27618Y57622D01*
G01X27652Y57550D01*
G01X27725Y57478D01*
G01X27795Y57443D01*
G01X27904Y57406D01*
G01X28083Y57406D01*
G01X28189Y57443D01*
G01X28262Y57478D01*
G01X28333Y57550D01*
G01X28369Y57622D01*
G01X28369Y57765D01*
G01X28333Y57836D01*
G01X28262Y57907D01*
G01X28189Y57944D01*
G01X28047Y58179D02*
G01X28047Y58824D01*
G01X27618Y59060D02*
G01X28369Y59060D01*
G01X27618Y59060D02*
G01X27618Y59311D01*
G01X27652Y59418D01*
G01X27725Y59490D01*
G01X27795Y59526D01*
G01X27904Y59561D01*
G01X28083Y59561D01*
G01X28189Y59526D01*
G01X28262Y59490D01*
G01X28333Y59418D01*
G01X28369Y59311D01*
G01X28369Y59060D01*
G01X27795Y60335D02*
G01X27725Y60299D01*
G01X27652Y60227D01*
G01X27618Y60155D01*
G01X27618Y60012D01*
G01X27652Y59941D01*
G01X27725Y59869D01*
G01X27795Y59832D01*
G01X27904Y59798D01*
G01X28083Y59798D01*
G01X28189Y59832D01*
G01X28262Y59869D01*
G01X28333Y59941D01*
G01X28369Y60012D01*
G01X28369Y60155D01*
G01X28333Y60227D01*
G01X28262Y60299D01*
G01X28189Y60335D01*
G01X20570Y55117D02*
G01X20570Y54760D01*
G01X20893Y54724D01*
G01X20857Y54760D01*
G01X20820Y54867D01*
G01X20820Y54974D01*
G01X20857Y55081D01*
G01X20927Y55153D01*
G01X21036Y55189D01*
G01X21107Y55189D01*
G01X21214Y55153D01*
G01X21286Y55081D01*
G01X21322Y54974D01*
G01X21322Y54867D01*
G01X21286Y54760D01*
G01X21251Y54724D01*
G01X21179Y54688D01*
G01X20570Y55425D02*
G01X21322Y55712D01*
G01X20570Y55998D02*
G01X21322Y55712D01*
G01X20570Y56785D02*
G01X21322Y56785D01*
G01X20570Y56785D02*
G01X20570Y57036D01*
G01X20606Y57143D01*
G01X20677Y57215D01*
G01X20749Y57251D01*
G01X20857Y57286D01*
G01X21036Y57286D01*
G01X21143Y57251D01*
G01X21214Y57215D01*
G01X21286Y57143D01*
G01X21322Y57036D01*
G01X21322Y56785D01*
G01X20749Y58060D02*
G01X20677Y58024D01*
G01X20606Y57952D01*
G01X20570Y57880D01*
G01X20570Y57737D01*
G01X20606Y57666D01*
G01X20677Y57594D01*
G01X20749Y57557D01*
G01X20857Y57523D01*
G01X21036Y57523D01*
G01X21143Y57557D01*
G01X21214Y57594D01*
G01X21286Y57666D01*
G01X21322Y57737D01*
G01X21322Y57880D01*
G01X21286Y57952D01*
G01X21214Y58024D01*
G01X21143Y58060D01*
G01X21000Y58296D02*
G01X21000Y58940D01*
G01X20570Y59176D02*
G01X21322Y59176D01*
G01X20570Y59176D02*
G01X20570Y59427D01*
G01X20606Y59533D01*
G01X20677Y59605D01*
G01X20749Y59641D01*
G01X20857Y59677D01*
G01X21036Y59677D01*
G01X21143Y59641D01*
G01X21214Y59605D01*
G01X21286Y59533D01*
G01X21322Y59427D01*
G01X21322Y59176D01*
G01X20749Y60450D02*
G01X20677Y60415D01*
G01X20606Y60343D01*
G01X20570Y60271D01*
G01X20570Y60128D01*
G01X20606Y60056D01*
G01X20677Y59985D01*
G01X20749Y59949D01*
G01X20857Y59913D01*
G01X21036Y59913D01*
G01X21143Y59949D01*
G01X21214Y59985D01*
G01X21286Y60056D01*
G01X21322Y60128D01*
G01X21322Y60271D01*
G01X21286Y60343D01*
G01X21214Y60415D01*
G01X21143Y60450D01*
G54D15*
G01X42328Y45458D02*
G01X42758Y45458D01*
G01X42328Y45458D02*
G01X42328Y45642D01*
G01X42349Y45703D01*
G01X42369Y45724D01*
G01X42410Y45744D01*
G01X42472Y45744D01*
G01X42513Y45724D01*
G01X42533Y45703D01*
G01X42553Y45642D01*
G01X42553Y45458D01*
G01X42328Y46022D02*
G01X42758Y46022D01*
G01X42328Y45879D02*
G01X42328Y46166D01*
G01X42328Y46587D02*
G01X42758Y46301D01*
G01X42328Y46301D02*
G01X42328Y46587D01*
G01X42758Y46301D02*
G01X42758Y46587D01*
G01X42328Y47037D02*
G01X42758Y47037D01*
G01X42328Y47323D02*
G01X42758Y47323D01*
G01X42533Y47037D02*
G01X42533Y47323D01*
G01X42328Y47458D02*
G01X42758Y47458D01*
G01X42328Y47458D02*
G01X42328Y47724D01*
G01X42533Y47458D02*
G01X42533Y47622D01*
G01X42758Y47458D02*
G01X42758Y47724D01*
G01X42328Y48023D02*
G01X42758Y47859D01*
G01X42328Y48023D02*
G01X42758Y48186D01*
G01X42615Y47921D02*
G01X42615Y48125D01*
G01X42328Y48321D02*
G01X42758Y48321D01*
G01X42328Y48321D02*
G01X42328Y48465D01*
G01X42349Y48526D01*
G01X42390Y48567D01*
G01X42430Y48587D01*
G01X42491Y48608D01*
G01X42594Y48608D01*
G01X42655Y48587D01*
G01X42697Y48567D01*
G01X42738Y48526D01*
G01X42758Y48465D01*
G01X42758Y48321D01*
G01X7781Y55425D02*
G01X7352Y55711D01*
G01X7781Y55711D02*
G01X7781Y55425D01*
G01X7352Y55711D02*
G01X7352Y55425D01*
G01X7781Y55167D02*
G01X7761Y55207D01*
G01X7719Y55249D01*
G01X7678Y55269D01*
G01X7618Y55290D01*
G01X7516Y55290D01*
G01X7453Y55269D01*
G01X7413Y55249D01*
G01X7372Y55207D01*
G01X7352Y55167D01*
G01X7352Y55085D01*
G01X7372Y55044D01*
G01X7413Y55003D01*
G01X7453Y54982D01*
G01X7516Y54962D01*
G01X7618Y54962D01*
G01X7678Y54982D01*
G01X7719Y55003D01*
G01X7761Y55044D01*
G01X7781Y55085D01*
G01X7781Y55167D01*
G01X7781Y54704D02*
G01X7761Y54746D01*
G01X7719Y54786D01*
G01X7678Y54806D01*
G01X7618Y54827D01*
G01X7516Y54827D01*
G01X7453Y54806D01*
G01X7413Y54786D01*
G01X7372Y54746D01*
G01X7352Y54704D01*
G01X7352Y54623D01*
G01X7372Y54581D01*
G01X7413Y54541D01*
G01X7453Y54521D01*
G01X7516Y54500D01*
G01X7618Y54500D01*
G01X7678Y54521D01*
G01X7719Y54541D01*
G01X7761Y54581D01*
G01X7781Y54623D01*
G01X7781Y54704D01*
G01X7781Y54365D02*
G01X7352Y54365D01*
G01X7781Y54365D02*
G01X7352Y54201D01*
G01X7781Y54038D02*
G01X7352Y54201D01*
G01X7781Y54038D02*
G01X7352Y54038D01*
G01X7781Y53588D02*
G01X7352Y53588D01*
G01X7781Y53588D02*
G01X7352Y53424D01*
G01X7781Y53261D02*
G01X7352Y53424D01*
G01X7781Y53261D02*
G01X7352Y53261D01*
G01X7781Y53003D02*
G01X7761Y53044D01*
G01X7719Y53085D01*
G01X7678Y53104D01*
G01X7618Y53126D01*
G01X7516Y53126D01*
G01X7453Y53104D01*
G01X7413Y53085D01*
G01X7372Y53044D01*
G01X7352Y53003D01*
G01X7352Y52921D01*
G01X7372Y52879D01*
G01X7413Y52839D01*
G01X7453Y52819D01*
G01X7516Y52798D01*
G01X7618Y52798D01*
G01X7678Y52819D01*
G01X7719Y52839D01*
G01X7761Y52879D01*
G01X7781Y52921D01*
G01X7781Y53003D01*
G01X7781Y52520D02*
G01X7352Y52520D01*
G01X7781Y52663D02*
G01X7781Y52377D01*
G01X7781Y52119D02*
G01X7761Y52160D01*
G01X7719Y52201D01*
G01X7678Y52221D01*
G01X7618Y52242D01*
G01X7516Y52242D01*
G01X7453Y52221D01*
G01X7413Y52201D01*
G01X7372Y52160D01*
G01X7352Y52119D01*
G01X7352Y52037D01*
G01X7372Y51996D01*
G01X7413Y51955D01*
G01X7453Y51935D01*
G01X7516Y51915D01*
G01X7618Y51915D01*
G01X7678Y51935D01*
G01X7719Y51955D01*
G01X7761Y51996D01*
G01X7781Y52037D01*
G01X7781Y52119D01*
G01X7781Y51779D02*
G01X7352Y51779D01*
G01X7781Y51779D02*
G01X7781Y51596D01*
G01X7761Y51533D01*
G01X7741Y51514D01*
G01X7700Y51493D01*
G01X7659Y51493D01*
G01X7618Y51514D01*
G01X7597Y51533D01*
G01X7577Y51596D01*
G01X7577Y51779D01*
G01X7577Y51636D02*
G01X7352Y51493D01*
G01X7781Y42490D02*
G01X7352Y42490D01*
G01X7781Y42490D02*
G01X7781Y42224D01*
G01X7577Y42490D02*
G01X7577Y42326D01*
G01X7781Y41966D02*
G01X7761Y42007D01*
G01X7719Y42048D01*
G01X7678Y42068D01*
G01X7618Y42089D01*
G01X7515Y42089D01*
G01X7453Y42068D01*
G01X7413Y42048D01*
G01X7372Y42007D01*
G01X7352Y41966D01*
G01X7352Y41884D01*
G01X7372Y41843D01*
G01X7413Y41802D01*
G01X7453Y41782D01*
G01X7515Y41761D01*
G01X7618Y41761D01*
G01X7678Y41782D01*
G01X7719Y41802D01*
G01X7761Y41843D01*
G01X7781Y41884D01*
G01X7781Y41966D01*
G01X7678Y41320D02*
G01X7719Y41340D01*
G01X7761Y41381D01*
G01X7781Y41422D01*
G01X7781Y41504D01*
G01X7761Y41545D01*
G01X7719Y41586D01*
G01X7678Y41606D01*
G01X7618Y41626D01*
G01X7515Y41626D01*
G01X7453Y41606D01*
G01X7413Y41586D01*
G01X7372Y41545D01*
G01X7352Y41504D01*
G01X7352Y41422D01*
G01X7372Y41381D01*
G01X7413Y41340D01*
G01X7453Y41320D01*
G01X7781Y41185D02*
G01X7474Y41185D01*
G01X7413Y41164D01*
G01X7372Y41123D01*
G01X7352Y41062D01*
G01X7352Y41021D01*
G01X7372Y40960D01*
G01X7413Y40919D01*
G01X7474Y40898D01*
G01X7781Y40898D01*
G01X7719Y40477D02*
G01X7761Y40518D01*
G01X7781Y40579D01*
G01X7781Y40661D01*
G01X7761Y40722D01*
G01X7719Y40763D01*
G01X7678Y40763D01*
G01X7638Y40743D01*
G01X7618Y40722D01*
G01X7597Y40681D01*
G01X7556Y40559D01*
G01X7536Y40518D01*
G01X7515Y40497D01*
G01X7474Y40477D01*
G01X7413Y40477D01*
G01X7372Y40518D01*
G01X7352Y40579D01*
G01X7352Y40661D01*
G01X7372Y40722D01*
G01X7413Y40763D01*
G01X7781Y40027D02*
G01X7352Y40027D01*
G01X7781Y40027D02*
G01X7352Y39863D01*
G01X7781Y39700D02*
G01X7352Y39863D01*
G01X7781Y39700D02*
G01X7352Y39700D01*
G01X7781Y39442D02*
G01X7761Y39483D01*
G01X7719Y39524D01*
G01X7678Y39544D01*
G01X7618Y39565D01*
G01X7515Y39565D01*
G01X7453Y39544D01*
G01X7413Y39524D01*
G01X7372Y39483D01*
G01X7352Y39442D01*
G01X7352Y39360D01*
G01X7372Y39319D01*
G01X7413Y39278D01*
G01X7453Y39258D01*
G01X7515Y39237D01*
G01X7618Y39237D01*
G01X7678Y39258D01*
G01X7719Y39278D01*
G01X7761Y39319D01*
G01X7781Y39360D01*
G01X7781Y39442D01*
G01X7781Y38959D02*
G01X7352Y38959D01*
G01X7781Y39102D02*
G01X7781Y38816D01*
G01X7781Y38558D02*
G01X7761Y38599D01*
G01X7719Y38640D01*
G01X7678Y38661D01*
G01X7618Y38681D01*
G01X7515Y38681D01*
G01X7453Y38661D01*
G01X7413Y38640D01*
G01X7372Y38599D01*
G01X7352Y38558D01*
G01X7352Y38476D01*
G01X7372Y38436D01*
G01X7413Y38395D01*
G01X7453Y38374D01*
G01X7515Y38354D01*
G01X7618Y38354D01*
G01X7678Y38374D01*
G01X7719Y38395D01*
G01X7761Y38436D01*
G01X7781Y38476D01*
G01X7781Y38558D01*
G01X7781Y38219D02*
G01X7352Y38219D01*
G01X7781Y38219D02*
G01X7781Y38035D01*
G01X7761Y37973D01*
G01X7740Y37953D01*
G01X7699Y37932D01*
G01X7659Y37932D01*
G01X7618Y37953D01*
G01X7597Y37973D01*
G01X7577Y38035D01*
G01X7577Y38219D01*
G01X7577Y38076D02*
G01X7352Y37932D01*
G01X10604Y57671D02*
G01X10563Y57651D01*
G01X10502Y57590D01*
G01X10502Y58020D01*
G01X10346Y57693D02*
G01X10346Y57671D01*
G01X10326Y57630D01*
G01X10305Y57610D01*
G01X10263Y57590D01*
G01X10183Y57590D01*
G01X10141Y57610D01*
G01X10121Y57630D01*
G01X10101Y57671D01*
G01X10101Y57713D01*
G01X10121Y57753D01*
G01X10162Y57815D01*
G01X10366Y58020D01*
G01X10080Y58020D01*
G01X9944Y57590D02*
G01X9782Y58020D01*
G01X9618Y57590D02*
G01X9782Y58020D01*
G01X9483Y57590D02*
G01X9483Y58020D01*
G01X9483Y57590D02*
G01X9340Y57590D01*
G01X9279Y57610D01*
G01X9238Y57651D01*
G01X9216Y57693D01*
G01X9197Y57753D01*
G01X9197Y57855D01*
G01X9216Y57918D01*
G01X9238Y57957D01*
G01X9279Y58001D01*
G01X9340Y58020D01*
G01X9483Y58020D01*
G01X8755Y57693D02*
G01X8775Y57651D01*
G01X8816Y57610D01*
G01X8857Y57590D01*
G01X8938Y57590D01*
G01X8980Y57610D01*
G01X9021Y57651D01*
G01X9041Y57693D01*
G01X9062Y57753D01*
G01X9062Y57855D01*
G01X9041Y57918D01*
G01X9021Y57957D01*
G01X8980Y58001D01*
G01X8938Y58020D01*
G01X8857Y58020D01*
G01X8816Y58001D01*
G01X8775Y57957D01*
G01X8755Y57918D01*
G01X8181Y57590D02*
G01X8222Y57610D01*
G01X8263Y57651D01*
G01X8284Y57693D01*
G01X8305Y57753D01*
G01X8305Y57855D01*
G01X8284Y57918D01*
G01X8263Y57957D01*
G01X8222Y58001D01*
G01X8181Y58020D01*
G01X8100Y58020D01*
G01X8059Y58001D01*
G01X8019Y57957D01*
G01X7997Y57918D01*
G01X7978Y57855D01*
G01X7978Y57753D01*
G01X7997Y57693D01*
G01X8019Y57651D01*
G01X8059Y57610D01*
G01X8100Y57590D01*
G01X8181Y57590D01*
G01X7843Y57590D02*
G01X7843Y57896D01*
G01X7822Y57957D01*
G01X7781Y58001D01*
G01X7719Y58020D01*
G01X7678Y58020D01*
G01X7618Y58001D01*
G01X7577Y57957D01*
G01X7556Y57896D01*
G01X7556Y57590D01*
G01X7278Y57590D02*
G01X7278Y58020D01*
G01X7421Y57590D02*
G01X7134Y57590D01*
G01X15802Y57671D02*
G01X15761Y57651D01*
G01X15700Y57590D01*
G01X15700Y58019D01*
G01X15544Y57692D02*
G01X15544Y57671D01*
G01X15524Y57629D01*
G01X15503Y57610D01*
G01X15462Y57590D01*
G01X15381Y57590D01*
G01X15340Y57610D01*
G01X15319Y57629D01*
G01X15299Y57671D01*
G01X15299Y57712D01*
G01X15319Y57753D01*
G01X15360Y57815D01*
G01X15565Y58019D01*
G01X15278Y58019D01*
G01X15143Y57590D02*
G01X14980Y58019D01*
G01X14816Y57590D02*
G01X14980Y58019D01*
G01X14681Y57590D02*
G01X14681Y58019D01*
G01X14681Y57590D02*
G01X14538Y57590D01*
G01X14477Y57610D01*
G01X14436Y57651D01*
G01X14415Y57692D01*
G01X14394Y57753D01*
G01X14394Y57854D01*
G01X14415Y57917D01*
G01X14436Y57957D01*
G01X14477Y57999D01*
G01X14538Y58019D01*
G01X14681Y58019D01*
G01X13953Y57692D02*
G01X13972Y57651D01*
G01X14013Y57610D01*
G01X14055Y57590D01*
G01X14137Y57590D01*
G01X14178Y57610D01*
G01X14219Y57651D01*
G01X14238Y57692D01*
G01X14260Y57753D01*
G01X14260Y57854D01*
G01X14238Y57917D01*
G01X14219Y57957D01*
G01X14178Y57999D01*
G01X14137Y58019D01*
G01X14055Y58019D01*
G01X14013Y57999D01*
G01X13972Y57957D01*
G01X13953Y57917D01*
G01X13503Y57590D02*
G01X13503Y58019D01*
G01X13368Y57590D02*
G01X13368Y58019D01*
G01X13368Y57590D02*
G01X13082Y58019D01*
G01X13082Y57590D02*
G01X13082Y58019D01*

%LPD*%
%LNFill Path*%
G36*
G01X46752Y56442D02*
G01X46752Y56442D01*
G01X46752Y56442D01*
G01X46739Y56435D01*
G01X46726Y56428D01*
G01X46711Y56420D01*
G01X46697Y56410D01*
G01X46681Y56400D01*
G01X46665Y56388D01*
G01X46648Y56376D01*
G01X46631Y56362D01*
G01X46614Y56348D01*
G01X46596Y56333D01*
G01X46577Y56318D01*
G01X46558Y56301D01*
G01X46539Y56284D01*
G01X46520Y56266D01*
G01X46500Y56248D01*
G01X46480Y56229D01*
G01X46460Y56210D01*
G01X46440Y56190D01*
G01X46420Y56169D01*
G01X46400Y56148D01*
G01X46380Y56127D01*
G01X46360Y56106D01*
G01X46340Y56084D01*
G01X46320Y56062D01*
G01X46300Y56040D01*
G01X46281Y56017D01*
G01X46262Y55995D01*
G01X46243Y55972D01*
G01X46224Y55949D01*
G01X46206Y55927D01*
G01X46189Y55904D01*
G01X46172Y55881D01*
G01X46082Y55772D01*
G01X45812Y55812D01*
G01X45812Y55812D01*
G01X45785Y55815D01*
G01X45758Y55818D01*
G01X45732Y55821D01*
G01X45705Y55824D01*
G01X45679Y55827D01*
G01X45652Y55829D01*
G01X45626Y55832D01*
G01X45599Y55834D01*
G01X45573Y55836D01*
G01X45546Y55838D01*
G01X45519Y55839D01*
G01X45493Y55841D01*
G01X45466Y55842D01*
G01X45440Y55843D01*
G01X45413Y55844D01*
G01X45387Y55845D01*
G01X45360Y55846D01*
G01X45334Y55846D01*
G01X45308Y55846D01*
G01X45281Y55847D01*
G01X45255Y55847D01*
G01X45228Y55846D01*
G01X45202Y55846D01*
G01X45176Y55845D01*
G01X45150Y55845D01*
G01X45124Y55844D01*
G01X45097Y55843D01*
G01X45071Y55842D01*
G01X45045Y55840D01*
G01X45019Y55839D01*
G01X44993Y55837D01*
G01X44967Y55836D01*
G01X44942Y55834D01*
G01X44916Y55832D01*
G01X44890Y55829D01*
G01X44864Y55827D01*
G01X44839Y55824D01*
G01X44813Y55822D01*
G01X44788Y55819D01*
G01X44763Y55816D01*
G01X44737Y55812D01*
G01X44712Y55809D01*
G01X44687Y55806D01*
G01X44662Y55802D01*
G01X44637Y55798D01*
G01X44612Y55794D01*
G01X44587Y55790D01*
G01X44562Y55786D01*
G01X44538Y55781D01*
G01X44513Y55777D01*
G01X44489Y55772D01*
G01X44464Y55767D01*
G01X44440Y55762D01*
G01X44416Y55757D01*
G01X44392Y55752D01*
G01X44368Y55747D01*
G01X44344Y55741D01*
G01X44320Y55735D01*
G01X44297Y55729D01*
G01X44273Y55723D01*
G01X44250Y55717D01*
G01X44226Y55711D01*
G01X44203Y55705D01*
G01X44180Y55698D01*
G01X44157Y55691D01*
G01X44134Y55685D01*
G01X44112Y55678D01*
G01X44089Y55670D01*
G01X44067Y55663D01*
G01X44045Y55656D01*
G01X44022Y55648D01*
G01X44001Y55641D01*
G01X43979Y55633D01*
G01X43957Y55625D01*
G01X43935Y55617D01*
G01X43914Y55609D01*
G01X43893Y55600D01*
G01X43872Y55592D01*
G01X43851Y55583D01*
G01X43830Y55575D01*
G01X43809Y55566D01*
G01X43789Y55557D01*
G01X43769Y55548D01*
G01X43749Y55539D01*
G01X43729Y55529D01*
G01X43709Y55520D01*
G01X43689Y55510D01*
G01X43670Y55501D01*
G01X43650Y55491D01*
G01X43631Y55481D01*
G01X43613Y55471D01*
G01X43594Y55460D01*
G01X43575Y55450D01*
G01X43557Y55440D01*
G01X43539Y55429D01*
G01X43521Y55418D01*
G01X43503Y55408D01*
G01X43486Y55397D01*
G01X43468Y55386D01*
G01X43451Y55374D01*
G01X43434Y55363D01*
G01X43417Y55352D01*
G01X43401Y55340D01*
G01X43384Y55329D01*
G01X43368Y55317D01*
G01X43352Y55305D01*
G01X43337Y55293D01*
G01X43321Y55281D01*
G01X43306Y55269D01*
G01X43291Y55256D01*
G01X43276Y55244D01*
G01X43262Y55231D01*
G01X43262Y55231D01*
G01X43242Y55214D01*
G01X43223Y55196D01*
G01X43204Y55178D01*
G01X43186Y55160D01*
G01X43169Y55141D01*
G01X43152Y55123D01*
G01X43136Y55104D01*
G01X43120Y55085D01*
G01X43105Y55065D01*
G01X43090Y55046D01*
G01X43076Y55026D01*
G01X43063Y55007D01*
G01X43050Y54987D01*
G01X43038Y54967D01*
G01X43027Y54947D01*
G01X43016Y54926D01*
G01X43005Y54906D01*
G01X42995Y54885D01*
G01X42986Y54865D01*
G01X42978Y54844D01*
G01X42970Y54823D01*
G01X42962Y54802D01*
G01X42955Y54781D01*
G01X42949Y54760D01*
G01X42943Y54739D01*
G01X42938Y54718D01*
G01X42934Y54697D01*
G01X42930Y54675D01*
G01X42927Y54654D01*
G01X42924Y54633D01*
G01X42922Y54611D01*
G01X42921Y54590D01*
G01X42920Y54569D01*
G01X42920Y54547D01*
G01X42920Y54526D01*
G01X42921Y54504D01*
G01X42923Y54483D01*
G01X42925Y54462D01*
G01X42928Y54440D01*
G01X42931Y54419D01*
G01X42936Y54398D01*
G01X42940Y54377D01*
G01X42946Y54356D01*
G01X42951Y54335D01*
G01X42958Y54314D01*
G01X42965Y54293D01*
G01X42973Y54272D01*
G01X42982Y54252D01*
G01X42982Y54252D01*
G01X42989Y54235D01*
G01X42998Y54218D01*
G01X43007Y54201D01*
G01X43017Y54184D01*
G01X43028Y54167D01*
G01X43039Y54149D01*
G01X43050Y54132D01*
G01X43063Y54114D01*
G01X43076Y54096D01*
G01X43089Y54078D01*
G01X43103Y54060D01*
G01X43118Y54042D01*
G01X43133Y54025D01*
G01X43149Y54007D01*
G01X43165Y53989D01*
G01X43181Y53971D01*
G01X43198Y53953D01*
G01X43216Y53935D01*
G01X43233Y53918D01*
G01X43252Y53900D01*
G01X43270Y53883D01*
G01X43289Y53866D01*
G01X43308Y53849D01*
G01X43328Y53832D01*
G01X43348Y53815D01*
G01X43368Y53799D01*
G01X43388Y53782D01*
G01X43409Y53766D01*
G01X43430Y53751D01*
G01X43451Y53735D01*
G01X43473Y53720D01*
G01X43494Y53706D01*
G01X43516Y53691D01*
G01X43538Y53677D01*
G01X43560Y53663D01*
G01X43582Y53650D01*
G01X43604Y53637D01*
G01X43627Y53625D01*
G01X43649Y53613D01*
G01X43672Y53602D01*
G01X43672Y53602D01*
G01X43714Y53580D01*
G01X43752Y53560D01*
G01X43785Y53541D01*
G01X43814Y53523D01*
G01X43838Y53507D01*
G01X43859Y53492D01*
G01X43876Y53477D01*
G01X43889Y53463D01*
G01X43899Y53450D01*
G01X43906Y53437D01*
G01X43910Y53424D01*
G01X43912Y53412D01*
G01X43912Y53412D01*
G01X43911Y53398D01*
G01X43909Y53383D01*
G01X43907Y53367D01*
G01X43903Y53350D01*
G01X43899Y53332D01*
G01X43894Y53313D01*
G01X43887Y53294D01*
G01X43880Y53273D01*
G01X43873Y53252D01*
G01X43864Y53230D01*
G01X43855Y53207D01*
G01X43845Y53184D01*
G01X43835Y53160D01*
G01X43824Y53137D01*
G01X43812Y53112D01*
G01X43800Y53088D01*
G01X43788Y53063D01*
G01X43775Y53038D01*
G01X43762Y53014D01*
G01X43748Y52989D01*
G01X43734Y52964D01*
G01X43720Y52940D01*
G01X43706Y52916D01*
G01X43691Y52892D01*
G01X43676Y52869D01*
G01X43661Y52846D01*
G01X43646Y52823D01*
G01X43632Y52802D01*
G01X43632Y52802D01*
G01X43612Y52774D01*
G01X43593Y52748D01*
G01X43576Y52724D01*
G01X43560Y52700D01*
G01X43545Y52679D01*
G01X43531Y52659D01*
G01X43520Y52641D01*
G01X43510Y52626D01*
G01X43502Y52613D01*
G01X43496Y52603D01*
G01X43493Y52596D01*
G01X43491Y52592D01*
G01X43491Y52592D01*
G01X43498Y52589D01*
G01X43511Y52589D01*
G01X43529Y52592D01*
G01X43552Y52598D01*
G01X43578Y52605D01*
G01X43607Y52615D01*
G01X43638Y52627D01*
G01X43672Y52642D01*
G01X43672Y52642D01*
G01X43689Y52649D01*
G01X43706Y52658D01*
G01X43724Y52668D01*
G01X43742Y52679D01*
G01X43760Y52690D01*
G01X43779Y52702D01*
G01X43798Y52715D01*
G01X43817Y52729D01*
G01X43836Y52743D01*
G01X43856Y52758D01*
G01X43875Y52774D01*
G01X43895Y52790D01*
G01X43914Y52807D01*
G01X43934Y52824D01*
G01X43953Y52842D01*
G01X43973Y52860D01*
G01X43992Y52879D01*
G01X44011Y52898D01*
G01X44031Y52918D01*
G01X44050Y52937D01*
G01X44068Y52958D01*
G01X44087Y52978D01*
G01X44105Y52999D01*
G01X44123Y53020D01*
G01X44140Y53041D01*
G01X44158Y53062D01*
G01X44175Y53084D01*
G01X44191Y53105D01*
G01X44207Y53127D01*
G01X44222Y53148D01*
G01X44237Y53170D01*
G01X44252Y53192D01*
G01X44252Y53192D01*
G01X44273Y53226D01*
G01X44292Y53255D01*
G01X44309Y53279D01*
G01X44326Y53299D01*
G01X44341Y53314D01*
G01X44355Y53325D01*
G01X44370Y53333D01*
G01X44384Y53337D01*
G01X44399Y53339D01*
G01X44415Y53338D01*
G01X44432Y53336D01*
G01X44452Y53331D01*
G01X44452Y53331D01*
G01X44478Y53326D01*
G01X44504Y53321D01*
G01X44530Y53317D01*
G01X44556Y53312D01*
G01X44582Y53308D01*
G01X44609Y53304D01*
G01X44635Y53300D01*
G01X44661Y53296D01*
G01X44688Y53292D01*
G01X44714Y53289D01*
G01X44741Y53286D01*
G01X44767Y53283D01*
G01X44794Y53280D01*
G01X44821Y53277D01*
G01X44847Y53275D01*
G01X44874Y53273D01*
G01X44900Y53271D01*
G01X44927Y53269D01*
G01X44954Y53267D01*
G01X44980Y53266D01*
G01X45007Y53264D01*
G01X45034Y53263D01*
G01X45060Y53262D01*
G01X45087Y53261D01*
G01X45114Y53261D01*
G01X45140Y53260D01*
G01X45167Y53260D01*
G01X45194Y53260D01*
G01X45220Y53260D01*
G01X45247Y53260D01*
G01X45273Y53260D01*
G01X45300Y53261D01*
G01X45326Y53262D01*
G01X45353Y53263D01*
G01X45379Y53264D01*
G01X45406Y53265D01*
G01X45432Y53267D01*
G01X45458Y53268D01*
G01X45485Y53270D01*
G01X45511Y53272D01*
G01X45537Y53274D01*
G01X45563Y53276D01*
G01X45589Y53279D01*
G01X45615Y53281D01*
G01X45641Y53284D01*
G01X45667Y53287D01*
G01X45693Y53290D01*
G01X45719Y53293D01*
G01X45745Y53296D01*
G01X45770Y53300D01*
G01X45796Y53304D01*
G01X45821Y53307D01*
G01X45847Y53311D01*
G01X45872Y53316D01*
G01X45897Y53320D01*
G01X45922Y53324D01*
G01X45947Y53329D01*
G01X45972Y53334D01*
G01X45997Y53338D01*
G01X46022Y53344D01*
G01X46047Y53349D01*
G01X46071Y53354D01*
G01X46096Y53360D01*
G01X46120Y53365D01*
G01X46144Y53371D01*
G01X46168Y53377D01*
G01X46192Y53383D01*
G01X46216Y53389D01*
G01X46240Y53395D01*
G01X46263Y53402D01*
G01X46287Y53408D01*
G01X46310Y53415D01*
G01X46333Y53422D01*
G01X46357Y53429D01*
G01X46379Y53436D01*
G01X46402Y53444D01*
G01X46425Y53451D01*
G01X46447Y53459D01*
G01X46470Y53466D01*
G01X46492Y53474D01*
G01X46514Y53482D01*
G01X46536Y53490D01*
G01X46558Y53498D01*
G01X46579Y53507D01*
G01X46601Y53515D01*
G01X46622Y53524D01*
G01X46643Y53533D01*
G01X46664Y53541D01*
G01X46684Y53550D01*
G01X46705Y53560D01*
G01X46725Y53569D01*
G01X46745Y53578D01*
G01X46765Y53588D01*
G01X46785Y53597D01*
G01X46805Y53607D01*
G01X46824Y53617D01*
G01X46843Y53627D01*
G01X46862Y53637D01*
G01X46881Y53647D01*
G01X46900Y53657D01*
G01X46918Y53668D01*
G01X46936Y53678D01*
G01X46954Y53689D01*
G01X46972Y53699D01*
G01X46989Y53710D01*
G01X47007Y53721D01*
G01X47024Y53732D01*
G01X47040Y53744D01*
G01X47057Y53755D01*
G01X47073Y53766D01*
G01X47089Y53778D01*
G01X47105Y53789D01*
G01X47121Y53801D01*
G01X47136Y53813D01*
G01X47152Y53825D01*
G01X47166Y53837D01*
G01X47181Y53849D01*
G01X47195Y53861D01*
G01X47210Y53873D01*
G01X47223Y53886D01*
G01X47237Y53898D01*
G01X47250Y53911D01*
G01X47264Y53924D01*
G01X47276Y53937D01*
G01X47289Y53949D01*
G01X47301Y53962D01*
G01X47313Y53976D01*
G01X47325Y53989D01*
G01X47336Y54002D01*
G01X47347Y54015D01*
G01X47358Y54029D01*
G01X47369Y54042D01*
G01X47379Y54056D01*
G01X47389Y54070D01*
G01X47399Y54084D01*
G01X47408Y54097D01*
G01X47417Y54111D01*
G01X47426Y54125D01*
G01X47434Y54140D01*
G01X47442Y54154D01*
G01X47450Y54168D01*
G01X47458Y54182D01*
G01X47465Y54197D01*
G01X47472Y54212D01*
G01X47472Y54212D01*
G01X47481Y54233D01*
G01X47489Y54256D01*
G01X47497Y54279D01*
G01X47505Y54302D01*
G01X47511Y54326D01*
G01X47517Y54351D01*
G01X47522Y54376D01*
G01X47527Y54401D01*
G01X47530Y54426D01*
G01X47533Y54452D01*
G01X47536Y54478D01*
G01X47538Y54504D01*
G01X47539Y54530D01*
G01X47539Y54556D01*
G01X47539Y54583D01*
G01X47538Y54609D01*
G01X47536Y54635D01*
G01X47533Y54661D01*
G01X47530Y54687D01*
G01X47527Y54712D01*
G01X47522Y54737D01*
G01X47517Y54762D01*
G01X47511Y54787D01*
G01X47505Y54811D01*
G01X47497Y54834D01*
G01X47489Y54857D01*
G01X47481Y54880D01*
G01X47472Y54902D01*
G01X47472Y54902D01*
G01X47463Y54918D01*
G01X47454Y54936D01*
G01X47444Y54953D01*
G01X47433Y54971D01*
G01X47421Y54989D01*
G01X47409Y55007D01*
G01X47395Y55026D01*
G01X47380Y55044D01*
G01X47365Y55063D01*
G01X47349Y55082D01*
G01X47333Y55101D01*
G01X47315Y55120D01*
G01X47297Y55139D01*
G01X47279Y55158D01*
G01X47259Y55177D01*
G01X47240Y55195D01*
G01X47220Y55214D01*
G01X47199Y55233D01*
G01X47178Y55251D01*
G01X47157Y55269D01*
G01X47135Y55288D01*
G01X47113Y55305D01*
G01X47090Y55323D01*
G01X47068Y55340D01*
G01X47045Y55357D01*
G01X47022Y55373D01*
G01X46999Y55389D01*
G01X46976Y55405D01*
G01X46953Y55420D01*
G01X46929Y55435D01*
G01X46906Y55449D01*
G01X46883Y55463D01*
G01X46860Y55476D01*
G01X46837Y55488D01*
G01X46814Y55500D01*
G01X46791Y55512D01*
G01X46791Y55512D01*
G01X46750Y55533D01*
G01X46713Y55552D01*
G01X46683Y55569D01*
G01X46657Y55585D01*
G01X46636Y55600D01*
G01X46619Y55614D01*
G01X46606Y55628D01*
G01X46596Y55641D01*
G01X46589Y55655D01*
G01X46585Y55669D01*
G01X46582Y55685D01*
G01X46582Y55702D01*
G01X46582Y55702D01*
G01X46582Y55713D01*
G01X46584Y55726D01*
G01X46587Y55740D01*
G01X46590Y55757D01*
G01X46595Y55774D01*
G01X46601Y55793D01*
G01X46607Y55813D01*
G01X46615Y55835D01*
G01X46623Y55857D01*
G01X46632Y55880D01*
G01X46641Y55904D01*
G01X46651Y55929D01*
G01X46662Y55954D01*
G01X46673Y55980D01*
G01X46684Y56006D01*
G01X46697Y56033D01*
G01X46709Y56059D01*
G01X46722Y56086D01*
G01X46734Y56112D01*
G01X46748Y56139D01*
G01X46761Y56165D01*
G01X46774Y56190D01*
G01X46787Y56216D01*
G01X46801Y56240D01*
G01X46814Y56264D01*
G01X46827Y56287D01*
G01X46840Y56309D01*
G01X46853Y56330D01*
G01X46866Y56350D01*
G01X46878Y56368D01*
G01X46890Y56386D01*
G01X46902Y56402D01*
G01X46902Y56402D01*
G01X46917Y56424D01*
G01X46929Y56445D01*
G01X46938Y56462D01*
G01X46944Y56477D01*
G01X46947Y56489D01*
G01X46946Y56498D01*
G01X46942Y56504D01*
G01X46935Y56508D01*
G01X46925Y56509D01*
G01X46911Y56507D01*
G01X46893Y56503D01*
G01X46872Y56496D01*
G01X46847Y56486D01*
G01X46819Y56474D01*
G01X46787Y56459D01*
G01X46752Y56442D01*
G37*
G36*
G01X47241Y52912D02*
G01X47241Y52912D01*
G01X47241Y52912D01*
G01X47223Y52892D01*
G01X47207Y52874D01*
G01X47195Y52856D01*
G01X47186Y52839D01*
G01X47179Y52821D01*
G01X47177Y52804D01*
G01X47177Y52786D01*
G01X47181Y52768D01*
G01X47188Y52748D01*
G01X47199Y52728D01*
G01X47213Y52706D01*
G01X47232Y52681D01*
G01X47232Y52681D01*
G01X47246Y52663D01*
G01X47264Y52647D01*
G01X47285Y52635D01*
G01X47308Y52625D01*
G01X47333Y52618D01*
G01X47359Y52614D01*
G01X47385Y52613D01*
G01X47412Y52615D01*
G01X47437Y52620D01*
G01X47461Y52627D01*
G01X47482Y52638D01*
G01X47502Y52652D01*
G01X47502Y52652D01*
G01X47515Y52671D01*
G01X47526Y52692D01*
G01X47533Y52716D01*
G01X47538Y52741D01*
G01X47540Y52768D01*
G01X47539Y52794D01*
G01X47535Y52820D01*
G01X47528Y52845D01*
G01X47518Y52868D01*
G01X47506Y52889D01*
G01X47490Y52907D01*
G01X47472Y52922D01*
G01X47472Y52922D01*
G01X47447Y52940D01*
G01X47425Y52954D01*
G01X47405Y52965D01*
G01X47385Y52972D01*
G01X47367Y52976D01*
G01X47349Y52977D01*
G01X47332Y52974D01*
G01X47314Y52967D01*
G01X47297Y52958D01*
G01X47279Y52946D01*
G01X47261Y52930D01*
G01X47241Y52912D01*
G37*

%LPC*%
%LNFill Path*%
G36*
G01X44022Y55162D02*
G01X44022Y55162D01*
G01X44022Y55162D01*
G01X44037Y55146D01*
G01X44049Y55131D01*
G01X44059Y55115D01*
G01X44066Y55099D01*
G01X44070Y55084D01*
G01X44072Y55068D01*
G01X44072Y55053D01*
G01X44070Y55039D01*
G01X44066Y55025D01*
G01X44059Y55012D01*
G01X44051Y54999D01*
G01X44040Y54988D01*
G01X44028Y54978D01*
G01X44014Y54969D01*
G01X43999Y54962D01*
G01X43982Y54956D01*
G01X43964Y54952D01*
G01X43944Y54950D01*
G01X43923Y54950D01*
G01X43902Y54952D01*
G01X43902Y54952D01*
G01X43880Y54956D01*
G01X43862Y54966D01*
G01X43846Y54979D01*
G01X43833Y54995D01*
G01X43823Y55013D01*
G01X43817Y55034D01*
G01X43813Y55056D01*
G01X43813Y55078D01*
G01X43817Y55101D01*
G01X43825Y55122D01*
G01X43836Y55143D01*
G01X43852Y55162D01*
G01X43852Y55162D01*
G01X43871Y55181D01*
G01X43891Y55195D01*
G01X43911Y55204D01*
G01X43933Y55207D01*
G01X43955Y55204D01*
G01X43977Y55195D01*
G01X43999Y55181D01*
G01X44022Y55162D01*
G37*
G36*
G01X45012Y54692D02*
G01X45012Y54692D01*
G01X45012Y54281D01*
G01X45102Y54281D01*
G01X45102Y54281D01*
G01X45143Y54278D01*
G01X45167Y54265D01*
G01X45175Y54244D01*
G01X45172Y54212D01*
G01X45172Y54212D01*
G01X45169Y54193D01*
G01X45165Y54178D01*
G01X45160Y54165D01*
G01X45153Y54155D01*
G01X45144Y54147D01*
G01X45133Y54140D01*
G01X45118Y54135D01*
G01X45100Y54131D01*
G01X45077Y54129D01*
G01X45050Y54126D01*
G01X45019Y54124D01*
G01X44982Y54122D01*
G01X44982Y54122D01*
G01X44931Y54119D01*
G01X44892Y54118D01*
G01X44862Y54120D01*
G01X44840Y54124D01*
G01X44826Y54131D01*
G01X44817Y54141D01*
G01X44813Y54155D01*
G01X44812Y54172D01*
G01X44812Y54172D01*
G01X44810Y54194D01*
G01X44804Y54204D01*
G01X44795Y54202D01*
G01X44782Y54192D01*
G01X44782Y54192D01*
G01X44772Y54177D01*
G01X44759Y54163D01*
G01X44743Y54149D01*
G01X44724Y54136D01*
G01X44703Y54125D01*
G01X44681Y54114D01*
G01X44659Y54105D01*
G01X44636Y54097D01*
G01X44613Y54090D01*
G01X44591Y54085D01*
G01X44570Y54083D01*
G01X44552Y54081D01*
G01X44552Y54081D01*
G01X44532Y54083D01*
G01X44512Y54087D01*
G01X44492Y54094D01*
G01X44471Y54104D01*
G01X44451Y54116D01*
G01X44430Y54129D01*
G01X44410Y54145D01*
G01X44390Y54163D01*
G01X44371Y54182D01*
G01X44354Y54202D01*
G01X44337Y54224D01*
G01X44322Y54246D01*
G01X44309Y54269D01*
G01X44298Y54293D01*
G01X44288Y54317D01*
G01X44282Y54342D01*
G01X44282Y54342D01*
G01X44276Y54366D01*
G01X44272Y54391D01*
G01X44269Y54416D01*
G01X44267Y54442D01*
G01X44266Y54468D01*
G01X44267Y54495D01*
G01X44268Y54521D01*
G01X44271Y54547D01*
G01X44274Y54573D01*
G01X44279Y54599D01*
G01X44285Y54624D01*
G01X44292Y54649D01*
G01X44299Y54673D01*
G01X44308Y54696D01*
G01X44318Y54718D01*
G01X44329Y54740D01*
G01X44341Y54760D01*
G01X44353Y54778D01*
G01X44367Y54796D01*
G01X44382Y54812D01*
G01X44382Y54812D01*
G01X44396Y54826D01*
G01X44412Y54838D01*
G01X44429Y54849D01*
G01X44449Y54858D01*
G01X44469Y54866D01*
G01X44490Y54872D01*
G01X44512Y54876D01*
G01X44535Y54879D01*
G01X44558Y54880D01*
G01X44582Y54879D01*
G01X44605Y54877D01*
G01X44628Y54873D01*
G01X44650Y54868D01*
G01X44671Y54861D01*
G01X44692Y54852D01*
G01X44712Y54842D01*
G01X44712Y54842D01*
G01X44746Y54827D01*
G01X44764Y54828D01*
G01X44771Y54846D01*
G01X44772Y54881D01*
G01X44772Y54881D01*
G01X44768Y54908D01*
G01X44757Y54927D01*
G01X44738Y54938D01*
G01X44712Y54942D01*
G01X44712Y54942D01*
G01X44687Y54944D01*
G01X44665Y54950D01*
G01X44647Y54961D01*
G01X44633Y54975D01*
G01X44623Y54993D01*
G01X44617Y55013D01*
G01X44617Y55036D01*
G01X44622Y55062D01*
G01X44622Y55062D01*
G01X44631Y55075D01*
G01X44643Y55086D01*
G01X44659Y55095D01*
G01X44680Y55102D01*
G01X44706Y55106D01*
G01X44738Y55109D01*
G01X44776Y55111D01*
G01X44822Y55112D01*
G01X45012Y55112D01*
G01X45012Y54692D01*
G37*
G36*
G01X46682Y54812D02*
G01X46682Y54812D01*
G01X46682Y54812D01*
G01X46693Y54796D01*
G01X46703Y54780D01*
G01X46712Y54763D01*
G01X46719Y54745D01*
G01X46725Y54725D01*
G01X46730Y54703D01*
G01X46734Y54678D01*
G01X46737Y54652D01*
G01X46739Y54622D01*
G01X46741Y54589D01*
G01X46741Y54552D01*
G01X46741Y54512D01*
G01X46741Y54512D01*
G01X46742Y54465D01*
G01X46742Y54426D01*
G01X46743Y54392D01*
G01X46744Y54365D01*
G01X46747Y54342D01*
G01X46750Y54324D01*
G01X46755Y54310D01*
G01X46762Y54298D01*
G01X46771Y54289D01*
G01X46782Y54282D01*
G01X46795Y54277D01*
G01X46812Y54272D01*
G01X46812Y54272D01*
G01X46832Y54265D01*
G01X46848Y54255D01*
G01X46860Y54244D01*
G01X46869Y54230D01*
G01X46873Y54214D01*
G01X46873Y54198D01*
G01X46869Y54181D01*
G01X46861Y54163D01*
G01X46849Y54146D01*
G01X46834Y54130D01*
G01X46815Y54115D01*
G01X46791Y54102D01*
G01X46791Y54102D01*
G01X46770Y54095D01*
G01X46750Y54091D01*
G01X46730Y54088D01*
G01X46712Y54089D01*
G01X46693Y54092D01*
G01X46673Y54099D01*
G01X46653Y54108D01*
G01X46632Y54122D01*
G01X46632Y54122D01*
G01X46610Y54135D01*
G01X46591Y54145D01*
G01X46572Y54152D01*
G01X46553Y54155D01*
G01X46532Y54154D01*
G01X46509Y54148D01*
G01X46483Y54137D01*
G01X46452Y54122D01*
G01X46452Y54122D01*
G01X46428Y54112D01*
G01X46404Y54105D01*
G01X46379Y54100D01*
G01X46355Y54096D01*
G01X46331Y54094D01*
G01X46307Y54094D01*
G01X46284Y54095D01*
G01X46261Y54097D01*
G01X46238Y54102D01*
G01X46216Y54107D01*
G01X46195Y54114D01*
G01X46175Y54123D01*
G01X46156Y54132D01*
G01X46138Y54143D01*
G01X46121Y54156D01*
G01X46106Y54169D01*
G01X46091Y54183D01*
G01X46079Y54199D01*
G01X46068Y54215D01*
G01X46059Y54233D01*
G01X46051Y54251D01*
G01X46046Y54271D01*
G01X46043Y54291D01*
G01X46041Y54312D01*
G01X46041Y54312D01*
G01X46042Y54332D01*
G01X46044Y54351D01*
G01X46047Y54370D01*
G01X46052Y54387D01*
G01X46058Y54404D01*
G01X46065Y54420D01*
G01X46074Y54434D01*
G01X46084Y54448D01*
G01X46096Y54462D01*
G01X46110Y54474D01*
G01X46126Y54486D01*
G01X46143Y54497D01*
G01X46162Y54507D01*
G01X46183Y54516D01*
G01X46206Y54525D01*
G01X46231Y54534D01*
G01X46258Y54541D01*
G01X46287Y54549D01*
G01X46318Y54555D01*
G01X46352Y54562D01*
G01X46352Y54562D01*
G01X46400Y54569D01*
G01X46438Y54577D01*
G01X46463Y54584D01*
G01X46472Y54592D01*
G01X46472Y54592D01*
G01X46473Y54602D01*
G01X46479Y54618D01*
G01X46488Y54635D01*
G01X46502Y54652D01*
G01X46502Y54652D01*
G01X46499Y54680D01*
G01X46490Y54704D01*
G01X46472Y54725D01*
G01X46441Y54742D01*
G01X46441Y54742D01*
G01X46421Y54751D01*
G01X46405Y54758D01*
G01X46391Y54760D01*
G01X46380Y54758D01*
G01X46371Y54750D01*
G01X46361Y54737D01*
G01X46352Y54718D01*
G01X46341Y54692D01*
G01X46341Y54692D01*
G01X46330Y54670D01*
G01X46315Y54652D01*
G01X46298Y54638D01*
G01X46279Y54626D01*
G01X46259Y54618D01*
G01X46237Y54613D01*
G01X46214Y54611D01*
G01X46190Y54614D01*
G01X46167Y54620D01*
G01X46144Y54630D01*
G01X46122Y54644D01*
G01X46102Y54662D01*
G01X46102Y54662D01*
G01X46092Y54674D01*
G01X46085Y54687D01*
G01X46081Y54700D01*
G01X46078Y54712D01*
G01X46077Y54724D01*
G01X46077Y54736D01*
G01X46080Y54747D01*
G01X46084Y54759D01*
G01X46090Y54770D01*
G01X46098Y54780D01*
G01X46106Y54790D01*
G01X46117Y54800D01*
G01X46128Y54810D01*
G01X46141Y54819D01*
G01X46154Y54828D01*
G01X46169Y54836D01*
G01X46185Y54844D01*
G01X46202Y54851D01*
G01X46219Y54858D01*
G01X46237Y54864D01*
G01X46256Y54870D01*
G01X46275Y54875D01*
G01X46295Y54880D01*
G01X46315Y54884D01*
G01X46336Y54887D01*
G01X46357Y54890D01*
G01X46378Y54892D01*
G01X46399Y54894D01*
G01X46420Y54895D01*
G01X46441Y54895D01*
G01X46461Y54894D01*
G01X46482Y54893D01*
G01X46502Y54891D01*
G01X46522Y54888D01*
G01X46542Y54884D01*
G01X46560Y54880D01*
G01X46579Y54874D01*
G01X46596Y54868D01*
G01X46613Y54861D01*
G01X46629Y54853D01*
G01X46643Y54844D01*
G01X46657Y54834D01*
G01X46670Y54823D01*
G01X46682Y54812D01*
G37*
G36*
G01X44072Y54572D02*
G01X44072Y54572D01*
G01X44072Y54572D01*
G01X44074Y54513D01*
G01X44077Y54464D01*
G01X44080Y54422D01*
G01X44083Y54387D01*
G01X44088Y54358D01*
G01X44093Y54335D01*
G01X44099Y54317D01*
G01X44106Y54303D01*
G01X44115Y54292D01*
G01X44125Y54283D01*
G01X44138Y54277D01*
G01X44152Y54272D01*
G01X44152Y54272D01*
G01X44178Y54256D01*
G01X44197Y54239D01*
G01X44208Y54218D01*
G01X44212Y54192D01*
G01X44212Y54192D01*
G01X44206Y54178D01*
G01X44200Y54166D01*
G01X44192Y54157D01*
G01X44182Y54149D01*
G01X44168Y54143D01*
G01X44152Y54139D01*
G01X44131Y54136D01*
G01X44105Y54134D01*
G01X44074Y54132D01*
G01X44037Y54132D01*
G01X43993Y54132D01*
G01X43941Y54131D01*
G01X43941Y54131D01*
G01X43892Y54132D01*
G01X43850Y54132D01*
G01X43814Y54132D01*
G01X43783Y54133D01*
G01X43758Y54135D01*
G01X43738Y54138D01*
G01X43722Y54141D01*
G01X43710Y54146D01*
G01X43701Y54153D01*
G01X43695Y54160D01*
G01X43692Y54170D01*
G01X43691Y54181D01*
G01X43691Y54181D01*
G01X43690Y54210D01*
G01X43700Y54235D01*
G01X43724Y54259D01*
G01X43762Y54281D01*
G01X43762Y54281D01*
G01X43782Y54289D01*
G01X43799Y54296D01*
G01X43813Y54303D01*
G01X43824Y54312D01*
G01X43833Y54322D01*
G01X43839Y54335D01*
G01X43843Y54351D01*
G01X43845Y54371D01*
G01X43846Y54395D01*
G01X43845Y54425D01*
G01X43844Y54460D01*
G01X43841Y54502D01*
G01X43841Y54502D01*
G01X43838Y54553D01*
G01X43833Y54594D01*
G01X43828Y54628D01*
G01X43822Y54653D01*
G01X43813Y54671D01*
G01X43802Y54683D01*
G01X43788Y54689D01*
G01X43772Y54692D01*
G01X43772Y54692D01*
G01X43750Y54689D01*
G01X43730Y54696D01*
G01X43713Y54711D01*
G01X43700Y54730D01*
G01X43693Y54753D01*
G01X43691Y54777D01*
G01X43697Y54801D01*
G01X43712Y54822D01*
G01X43712Y54822D01*
G01X43722Y54832D01*
G01X43737Y54840D01*
G01X43757Y54847D01*
G01X43780Y54853D01*
G01X43807Y54857D01*
G01X43837Y54859D01*
G01X43868Y54861D01*
G01X43902Y54862D01*
G01X44062Y54862D01*
G01X44072Y54572D01*
G37*
G36*
G01X45832Y54812D02*
G01X45832Y54812D01*
G01X45832Y54812D01*
G01X45851Y54791D01*
G01X45868Y54769D01*
G01X45884Y54747D01*
G01X45898Y54723D01*
G01X45910Y54699D01*
G01X45920Y54674D01*
G01X45929Y54649D01*
G01X45935Y54623D01*
G01X45940Y54598D01*
G01X45942Y54572D01*
G01X45943Y54547D01*
G01X45941Y54522D01*
G01X45941Y54522D01*
G01X45938Y54510D01*
G01X45933Y54500D01*
G01X45926Y54491D01*
G01X45916Y54483D01*
G01X45903Y54477D01*
G01X45887Y54472D01*
G01X45866Y54467D01*
G01X45840Y54463D01*
G01X45809Y54460D01*
G01X45773Y54457D01*
G01X45731Y54454D01*
G01X45682Y54452D01*
G01X45682Y54452D01*
G01X45643Y54451D01*
G01X45608Y54450D01*
G01X45577Y54448D01*
G01X45548Y54445D01*
G01X45523Y54442D01*
G01X45502Y54438D01*
G01X45483Y54433D01*
G01X45468Y54428D01*
G01X45456Y54422D01*
G01X45448Y54416D01*
G01X45443Y54409D01*
G01X45441Y54402D01*
G01X45441Y54402D01*
G01X45443Y54385D01*
G01X45448Y54370D01*
G01X45455Y54356D01*
G01X45465Y54342D01*
G01X45477Y54330D01*
G01X45491Y54319D01*
G01X45507Y54309D01*
G01X45524Y54301D01*
G01X45542Y54293D01*
G01X45562Y54288D01*
G01X45581Y54284D01*
G01X45601Y54281D01*
G01X45621Y54281D01*
G01X45641Y54282D01*
G01X45661Y54285D01*
G01X45680Y54290D01*
G01X45697Y54297D01*
G01X45714Y54306D01*
G01X45728Y54318D01*
G01X45741Y54331D01*
G01X45741Y54331D01*
G01X45757Y54345D01*
G01X45774Y54356D01*
G01X45792Y54365D01*
G01X45810Y54371D01*
G01X45829Y54375D01*
G01X45847Y54375D01*
G01X45864Y54373D01*
G01X45879Y54369D01*
G01X45893Y54361D01*
G01X45905Y54351D01*
G01X45915Y54338D01*
G01X45922Y54322D01*
G01X45922Y54322D01*
G01X45925Y54306D01*
G01X45926Y54290D01*
G01X45922Y54273D01*
G01X45916Y54256D01*
G01X45907Y54239D01*
G01X45896Y54221D01*
G01X45882Y54204D01*
G01X45865Y54188D01*
G01X45847Y54172D01*
G01X45827Y54156D01*
G01X45805Y54142D01*
G01X45782Y54129D01*
G01X45758Y54117D01*
G01X45733Y54107D01*
G01X45708Y54098D01*
G01X45682Y54092D01*
G01X45682Y54092D01*
G01X45660Y54089D01*
G01X45639Y54087D01*
G01X45619Y54086D01*
G01X45598Y54085D01*
G01X45579Y54086D01*
G01X45559Y54088D01*
G01X45540Y54091D01*
G01X45522Y54094D01*
G01X45503Y54099D01*
G01X45486Y54104D01*
G01X45468Y54110D01*
G01X45452Y54117D01*
G01X45435Y54124D01*
G01X45419Y54132D01*
G01X45404Y54141D01*
G01X45389Y54151D01*
G01X45375Y54161D01*
G01X45361Y54171D01*
G01X45348Y54183D01*
G01X45335Y54194D01*
G01X45323Y54207D01*
G01X45311Y54220D01*
G01X45300Y54233D01*
G01X45289Y54247D01*
G01X45279Y54261D01*
G01X45270Y54276D01*
G01X45261Y54291D01*
G01X45253Y54306D01*
G01X45246Y54322D01*
G01X45239Y54338D01*
G01X45233Y54354D01*
G01X45227Y54371D01*
G01X45222Y54387D01*
G01X45218Y54404D01*
G01X45215Y54421D01*
G01X45212Y54439D01*
G01X45210Y54456D01*
G01X45209Y54473D01*
G01X45208Y54491D01*
G01X45208Y54509D01*
G01X45209Y54526D01*
G01X45211Y54544D01*
G01X45213Y54561D01*
G01X45216Y54579D01*
G01X45220Y54596D01*
G01X45225Y54614D01*
G01X45231Y54631D01*
G01X45237Y54648D01*
G01X45244Y54665D01*
G01X45252Y54682D01*
G01X45261Y54698D01*
G01X45271Y54714D01*
G01X45282Y54730D01*
G01X45293Y54746D01*
G01X45306Y54761D01*
G01X45319Y54776D01*
G01X45333Y54790D01*
G01X45348Y54805D01*
G01X45364Y54818D01*
G01X45382Y54831D01*
G01X45382Y54831D01*
G01X45395Y54841D01*
G01X45411Y54850D01*
G01X45430Y54858D01*
G01X45451Y54864D01*
G01X45474Y54869D01*
G01X45499Y54873D01*
G01X45525Y54876D01*
G01X45551Y54878D01*
G01X45579Y54878D01*
G01X45607Y54878D01*
G01X45634Y54876D01*
G01X45662Y54873D01*
G01X45688Y54869D01*
G01X45714Y54864D01*
G01X45739Y54858D01*
G01X45762Y54851D01*
G01X45783Y54843D01*
G01X45802Y54833D01*
G01X45818Y54823D01*
G01X45832Y54812D01*
G37*
G36*
G01X47472Y52862D02*
G01X47472Y52862D01*
G01X47472Y52862D01*
G01X47490Y52837D01*
G01X47499Y52812D01*
G01X47497Y52786D01*
G01X47482Y52762D01*
G01X47482Y52762D01*
G01X47474Y52734D01*
G01X47467Y52728D01*
G01X47459Y52746D01*
G01X47452Y52792D01*
G01X47452Y52792D01*
G01X47442Y52831D01*
G01X47427Y52859D01*
G01X47404Y52876D01*
G01X47372Y52881D01*
G01X47372Y52881D01*
G01X47355Y52880D01*
G01X47341Y52876D01*
G01X47331Y52868D01*
G01X47323Y52857D01*
G01X47317Y52841D01*
G01X47314Y52822D01*
G01X47312Y52799D01*
G01X47312Y52772D01*
G01X47312Y52772D01*
G01X47309Y52724D01*
G01X47303Y52699D01*
G01X47290Y52693D01*
G01X47272Y52702D01*
G01X47272Y52702D01*
G01X47259Y52723D01*
G01X47250Y52755D01*
G01X47248Y52793D01*
G01X47252Y52831D01*
G01X47252Y52831D01*
G01X47261Y52853D01*
G01X47273Y52871D01*
G01X47289Y52887D01*
G01X47306Y52899D01*
G01X47326Y52908D01*
G01X47347Y52914D01*
G01X47368Y52916D01*
G01X47390Y52914D01*
G01X47412Y52907D01*
G01X47433Y52897D01*
G01X47453Y52882D01*
G01X47472Y52862D01*
G37*
G36*
G01X47412Y52692D02*
G01X47412Y52692D01*
G01X47412Y52692D01*
G01X47408Y52675D01*
G01X47399Y52659D01*
G01X47386Y52647D01*
G01X47372Y52642D01*
G01X47372Y52642D01*
G01X47358Y52647D01*
G01X47349Y52659D01*
G01X47343Y52675D01*
G01X47341Y52692D01*
G01X47341Y52692D01*
G01X47343Y52714D01*
G01X47349Y52733D01*
G01X47358Y52746D01*
G01X47372Y52752D01*
G01X47372Y52752D01*
G01X47386Y52746D01*
G01X47399Y52733D01*
G01X47408Y52714D01*
G01X47412Y52692D01*
G37*

%LPD*%
%LNFill Path*%
G36*
G01X45502Y54712D02*
G01X45502Y54712D01*
G01X45502Y54712D01*
G01X45481Y54697D01*
G01X45466Y54683D01*
G01X45455Y54671D01*
G01X45449Y54659D01*
G01X45448Y54648D01*
G01X45452Y54639D01*
G01X45460Y54631D01*
G01X45474Y54624D01*
G01X45493Y54619D01*
G01X45517Y54615D01*
G01X45547Y54612D01*
G01X45582Y54612D01*
G01X45582Y54612D01*
G01X45612Y54612D01*
G01X45638Y54614D01*
G01X45660Y54617D01*
G01X45678Y54621D01*
G01X45692Y54627D01*
G01X45702Y54634D01*
G01X45707Y54642D01*
G01X45708Y54652D01*
G01X45705Y54662D01*
G01X45698Y54674D01*
G01X45687Y54687D01*
G01X45672Y54702D01*
G01X45672Y54702D01*
G01X45653Y54718D01*
G01X45635Y54730D01*
G01X45617Y54737D01*
G01X45598Y54740D01*
G01X45577Y54739D01*
G01X45555Y54734D01*
G01X45530Y54725D01*
G01X45502Y54712D01*
G37*
G36*
G01X44572Y54672D02*
G01X44572Y54672D01*
G01X44572Y54672D01*
G01X44556Y54658D01*
G01X44543Y54643D01*
G01X44531Y54626D01*
G01X44521Y54608D01*
G01X44513Y54589D01*
G01X44506Y54568D01*
G01X44501Y54547D01*
G01X44498Y54526D01*
G01X44496Y54504D01*
G01X44496Y54482D01*
G01X44498Y54460D01*
G01X44500Y54439D01*
G01X44504Y54418D01*
G01X44510Y54398D01*
G01X44517Y54379D01*
G01X44525Y54360D01*
G01X44534Y54344D01*
G01X44545Y54328D01*
G01X44557Y54315D01*
G01X44569Y54303D01*
G01X44583Y54294D01*
G01X44598Y54287D01*
G01X44614Y54283D01*
G01X44632Y54281D01*
G01X44632Y54281D01*
G01X44663Y54287D01*
G01X44694Y54300D01*
G01X44722Y54319D01*
G01X44741Y54342D01*
G01X44741Y54342D01*
G01X44752Y54363D01*
G01X44759Y54386D01*
G01X44765Y54409D01*
G01X44768Y54432D01*
G01X44770Y54455D01*
G01X44770Y54479D01*
G01X44768Y54502D01*
G01X44764Y54525D01*
G01X44759Y54547D01*
G01X44752Y54568D01*
G01X44744Y54589D01*
G01X44735Y54608D01*
G01X44725Y54625D01*
G01X44714Y54642D01*
G01X44702Y54656D01*
G01X44689Y54668D01*
G01X44675Y54678D01*
G01X44661Y54686D01*
G01X44647Y54691D01*
G01X44632Y54694D01*
G01X44617Y54693D01*
G01X44602Y54689D01*
G01X44587Y54682D01*
G01X44572Y54672D01*
G37*
G36*
G01X46382Y54412D02*
G01X46382Y54412D01*
G01X46382Y54412D01*
G01X46358Y54405D01*
G01X46338Y54396D01*
G01X46322Y54386D01*
G01X46309Y54374D01*
G01X46300Y54361D01*
G01X46295Y54348D01*
G01X46294Y54335D01*
G01X46297Y54323D01*
G01X46304Y54312D01*
G01X46316Y54302D01*
G01X46331Y54296D01*
G01X46352Y54292D01*
G01X46352Y54292D01*
G01X46378Y54288D01*
G01X46404Y54290D01*
G01X46430Y54299D01*
G01X46453Y54313D01*
G01X46472Y54331D01*
G01X46488Y54352D01*
G01X46498Y54376D01*
G01X46502Y54402D01*
G01X46502Y54402D01*
G01X46501Y54418D01*
G01X46500Y54430D01*
G01X46495Y54437D01*
G01X46487Y54440D01*
G01X46472Y54439D01*
G01X46451Y54434D01*
G01X46421Y54425D01*
G01X46382Y54412D01*
G37*

M00*
M02*