;Drill file created by EasyEDA
M48
;Holesize 1 = 0.036 INCH
T01C0.036
;Holesize 2 = 0.130 INCH
T02C0.130
;Holesize 3 = 0.120 INCH
T03C0.120
;Holesize 4 = 0.120 INCH
T04C0.120
;Holesize 5 = 0.140 INCH
T05C0.140
;Holesize 6 = 0.091 INCH
T06C0.091
;Holesize 7 = 0.032 INCH
T07C0.032
;Holesize 8 = 0.197 INCH
T08C0.197
;Holesize 9 = 0.118 INCH
T09C0.118
INCH,00.0000
%
G05
G90
T01
X031519Y038301
X031519Y039301
X031519Y040301
X031519Y041301
X031519Y042301
X031519Y043301
X031519Y044301
X031519Y045301
X031519Y046301
X031519Y047301
X031519Y048301
X031519Y049301
X031519Y050301
X039519Y038301
X039519Y039301
X039519Y040301
X039519Y041301
X039519Y042301
X039519Y043301
X039519Y044301
X039519Y045301
X039519Y046301
X039519Y047301
X039519Y048301
X039519Y049301
X039519Y050301
X011519Y050301
X011519Y049301
X011519Y046301
X011519Y045301
X011519Y038301
X011519Y037301
X011519Y036301
X011519Y035301
X017519Y048301
X017519Y049301
X017519Y050301
X017519Y041301
X017519Y040301
X017519Y036301
X017519Y035301
X021519Y050301
X021519Y049301
X021519Y046301
X021519Y045301
X021519Y038301
X021519Y037301
X021519Y036301
X021519Y035301
X027519Y048301
X027519Y049301
X027519Y050301
X027519Y041301
X027519Y040301
X026983Y036316
X026983Y035316
X039519Y054008
X039519Y055008
X039519Y056008
X039519Y057008
X039519Y058008
X039519Y059008
X039519Y060008
X039519Y061008
X033519Y054008
X033519Y055008
X033519Y056008
X033519Y057008
X033519Y058008
X033519Y059008
X033519Y060008
X033519Y061008
X044760Y045258
X043744Y045766
X044760Y046274
X043744Y046782
X044760Y047290
X043744Y047798
X044760Y048306
X043744Y048814
X005350Y055139
X006366Y054630
X005350Y054123
X006366Y053616
X005350Y053106
X006366Y052599
X005350Y052092
X006366Y051583
X005350Y042147
X006366Y041639
X005350Y041131
X006366Y040623
X005350Y040115
X006366Y039607
X005350Y039099
X006366Y038591
X025454Y053745
X026454Y053745
X029582Y053761
X030582Y053761
X029586Y061036
X030586Y061036
X025450Y061030
X026450Y061030
X018368Y053747
X019368Y053747
X022495Y053762
X023495Y053762
X022500Y061037
X023500Y061037
X018364Y061031
X019364Y061031
X004778Y048271
X004778Y047281
X004778Y046501
X004799Y045511
X005828Y045511
X005828Y046501
X005828Y047281
X005828Y048271
X018362Y057088
X008638Y049608
X036354Y054607
X037181Y054607
X036354Y049379
X037181Y049379
X029194Y045310
T02
X047300Y049411
X047300Y044664
X002811Y050987
X002811Y055732
X002811Y037994
X002811Y042741
T03
X006741Y060042
X012268Y060045
T04
X008861Y061342
X014388Y061345
T05
X008861Y058942
X014388Y058945
T06
X003729Y044311
X003729Y049471
X005969Y044311
X005969Y049471
T07
X046411Y040950
X046411Y039950
X046411Y038950
X043411Y038950
X043411Y039950
X043411Y040950
T08
X047691Y060433
X002417Y060433
X002417Y033663
X047692Y033663
T09
X045724Y058466
X045724Y035632
X004386Y035632
X004386Y058466
M30
